<?xml version="1.0" encoding="UTF-8" standalone="no"?>
<!-- Created with Inkscape (http://www.inkscape.org/) -->

<svg
   xmlns:dc="http://purl.org/dc/elements/1.1/"
   xmlns:cc="http://creativecommons.org/ns#"
   xmlns:rdf="http://www.w3.org/1999/02/22-rdf-syntax-ns#"
   xmlns:svg="http://www.w3.org/2000/svg"
   xmlns="http://www.w3.org/2000/svg"
   xmlns:sodipodi="http://sodipodi.sourceforge.net/DTD/sodipodi-0.dtd"
   xmlns:inkscape="http://www.inkscape.org/namespaces/inkscape"
   width="80px"
   height="80px"
   viewBox="0 0 80 80"
   version="1.1"
   id="SVGRoot"
   inkscape:version="0.92.4 (f8dce91, 2019-08-02)"
   sodipodi:docname="portrait.svg">
  <defs
     id="defs1024">
    <inkscape:path-effect
       effect="skeletal"
       id="path-effect4588"
       is_visible="true"
       pattern="m -7.8052081,114.96661 a 5.9655618,3.3889252 0 0 0 -4.0896719,0.92466 5.9655618,3.3889252 0 0 0 4.0896719,0.92743 5.9655618,3.3889252 0 0 0 4.0896731,-0.92466 5.9655618,3.3889252 0 0 0 -4.0896731,-0.92743 z"
       copytype="single_stretched"
       prop_scale="-0.91525207"
       scale_y_rel="false"
       spacing="0"
       normal_offset="0"
       tang_offset="0"
       prop_units="false"
       vertical_pattern="false"
       fuse_tolerance="0" />
    <inkscape:path-effect
       effect="skeletal"
       id="path-effect4598"
       is_visible="true"
       pattern="m -7.8052081,114.96661 a 5.9655618,3.3889252 0 0 0 -4.0896719,0.92466 5.9655618,3.3889252 0 0 0 4.0896719,0.92743 5.9655618,3.3889252 0 0 0 4.0896731,-0.92466 5.9655618,3.3889252 0 0 0 -4.0896731,-0.92743 z"
       copytype="single_stretched"
       prop_scale="0.84812763"
       scale_y_rel="false"
       spacing="0"
       normal_offset="0"
       tang_offset="0"
       prop_units="false"
       vertical_pattern="false"
       fuse_tolerance="0" />
    <inkscape:path-effect
       effect="skeletal"
       id="path-effect4608"
       is_visible="true"
       pattern="m -7.8052081,114.96661 a 5.9655618,3.3889252 0 0 0 -4.0896719,0.92466 5.9655618,3.3889252 0 0 0 4.0896719,0.92743 5.9655618,3.3889252 0 0 0 4.0896731,-0.92466 5.9655618,3.3889252 0 0 0 -4.0896731,-0.92743 z"
       copytype="single_stretched"
       prop_scale="0.26458333"
       scale_y_rel="false"
       spacing="0"
       normal_offset="0"
       tang_offset="0"
       prop_units="false"
       vertical_pattern="false"
       fuse_tolerance="0" />
    <inkscape:path-effect
       effect="skeletal"
       id="path-effect4658"
       is_visible="true"
       pattern="m -7.8052081,114.96661 a 5.9655618,3.3889252 0 0 0 -4.0896719,0.92466 5.9655618,3.3889252 0 0 0 4.0896719,0.92743 5.9655618,3.3889252 0 0 0 4.0896731,-0.92466 5.9655618,3.3889252 0 0 0 -4.0896731,-0.92743 z"
       copytype="single_stretched"
       prop_scale="0.26458333"
       scale_y_rel="false"
       spacing="0"
       normal_offset="0"
       tang_offset="0"
       prop_units="false"
       vertical_pattern="false"
       fuse_tolerance="0" />
    <inkscape:path-effect
       effect="skeletal"
       id="path-effect4668"
       is_visible="true"
       pattern="m -7.8052081,114.96661 a 5.9655618,3.3889252 0 0 0 -4.0896719,0.92466 5.9655618,3.3889252 0 0 0 4.0896719,0.92743 5.9655618,3.3889252 0 0 0 4.0896731,-0.92466 5.9655618,3.3889252 0 0 0 -4.0896731,-0.92743 z"
       copytype="single_stretched"
       prop_scale="0.26458333"
       scale_y_rel="false"
       spacing="0"
       normal_offset="0"
       tang_offset="0"
       prop_units="false"
       vertical_pattern="false"
       fuse_tolerance="0" />
    <inkscape:path-effect
       effect="skeletal"
       id="path-effect4678"
       is_visible="true"
       pattern="m -7.8052081,114.96661 a 5.9655618,3.3889252 0 0 0 -4.0896719,0.92466 5.9655618,3.3889252 0 0 0 4.0896719,0.92743 5.9655618,3.3889252 0 0 0 4.0896731,-0.92466 5.9655618,3.3889252 0 0 0 -4.0896731,-0.92743 z"
       copytype="single_stretched"
       prop_scale="0.26458333"
       scale_y_rel="false"
       spacing="0"
       normal_offset="0"
       tang_offset="0"
       prop_units="false"
       vertical_pattern="false"
       fuse_tolerance="0" />
    <inkscape:path-effect
       effect="skeletal"
       id="path-effect4688"
       is_visible="true"
       pattern="m -7.8052081,114.96661 a 5.9655618,3.3889252 0 0 0 -4.0896719,0.92466 5.9655618,3.3889252 0 0 0 4.0896719,0.92743 5.9655618,3.3889252 0 0 0 4.0896731,-0.92466 5.9655618,3.3889252 0 0 0 -4.0896731,-0.92743 z"
       copytype="single_stretched"
       prop_scale="0.26458333"
       scale_y_rel="false"
       spacing="0"
       normal_offset="0"
       tang_offset="0"
       prop_units="false"
       vertical_pattern="false"
       fuse_tolerance="0" />
    <inkscape:path-effect
       effect="skeletal"
       id="path-effect4708"
       is_visible="true"
       pattern="m -7.8052081,114.96661 a 5.9655618,3.3889252 0 0 0 -4.0896719,0.92466 5.9655618,3.3889252 0 0 0 4.0896719,0.92743 5.9655618,3.3889252 0 0 0 4.0896731,-0.92466 5.9655618,3.3889252 0 0 0 -4.0896731,-0.92743 z"
       copytype="single_stretched"
       prop_scale="0.26458333"
       scale_y_rel="false"
       spacing="0"
       normal_offset="0"
       tang_offset="0"
       prop_units="false"
       vertical_pattern="false"
       fuse_tolerance="0" />
    <inkscape:path-effect
       effect="skeletal"
       id="path-effect4718"
       is_visible="true"
       pattern="m -7.8052081,114.96661 a 5.9655618,3.3889252 0 0 0 -4.0896719,0.92466 5.9655618,3.3889252 0 0 0 4.0896719,0.92743 5.9655618,3.3889252 0 0 0 4.0896731,-0.92466 5.9655618,3.3889252 0 0 0 -4.0896731,-0.92743 z"
       copytype="single_stretched"
       prop_scale="0.26458333"
       scale_y_rel="false"
       spacing="0"
       normal_offset="0"
       tang_offset="0"
       prop_units="false"
       vertical_pattern="false"
       fuse_tolerance="0" />
    <inkscape:path-effect
       effect="skeletal"
       id="path-effect4728"
       is_visible="true"
       pattern="m -7.8052081,114.96661 a 5.9655618,3.3889252 0 0 0 -4.0896719,0.92466 5.9655618,3.3889252 0 0 0 4.0896719,0.92743 5.9655618,3.3889252 0 0 0 4.0896731,-0.92466 5.9655618,3.3889252 0 0 0 -4.0896731,-0.92743 z"
       copytype="single_stretched"
       prop_scale="0.26458333"
       scale_y_rel="false"
       spacing="0"
       normal_offset="0"
       tang_offset="0"
       prop_units="false"
       vertical_pattern="false"
       fuse_tolerance="0" />
    <inkscape:path-effect
       effect="skeletal"
       id="path-effect4758"
       is_visible="true"
       pattern="m -7.8052081,114.96661 a 5.9655618,3.3889252 0 0 0 -4.0896719,0.92466 5.9655618,3.3889252 0 0 0 4.0896719,0.92743 5.9655618,3.3889252 0 0 0 4.0896731,-0.92466 5.9655618,3.3889252 0 0 0 -4.0896731,-0.92743 z"
       copytype="single_stretched"
       prop_scale="0.26458333"
       scale_y_rel="false"
       spacing="0"
       normal_offset="0"
       tang_offset="0"
       prop_units="false"
       vertical_pattern="false"
       fuse_tolerance="0" />
    <inkscape:path-effect
       effect="skeletal"
       id="path-effect4768"
       is_visible="true"
       pattern="m -7.8052081,114.96661 a 5.9655618,3.3889252 0 0 0 -4.0896719,0.92466 5.9655618,3.3889252 0 0 0 4.0896719,0.92743 5.9655618,3.3889252 0 0 0 4.0896731,-0.92466 5.9655618,3.3889252 0 0 0 -4.0896731,-0.92743 z"
       copytype="single_stretched"
       prop_scale="0.26458333"
       scale_y_rel="false"
       spacing="0"
       normal_offset="0"
       tang_offset="0"
       prop_units="false"
       vertical_pattern="false"
       fuse_tolerance="0" />
    <inkscape:path-effect
       effect="skeletal"
       id="path-effect4778"
       is_visible="true"
       pattern="m -7.8052081,114.96661 a 5.9655618,3.3889252 0 0 0 -4.0896719,0.92466 5.9655618,3.3889252 0 0 0 4.0896719,0.92743 5.9655618,3.3889252 0 0 0 4.0896731,-0.92466 5.9655618,3.3889252 0 0 0 -4.0896731,-0.92743 z"
       copytype="single_stretched"
       prop_scale="0.26458333"
       scale_y_rel="false"
       spacing="0"
       normal_offset="0"
       tang_offset="0"
       prop_units="false"
       vertical_pattern="false"
       fuse_tolerance="0" />
    <inkscape:path-effect
       effect="skeletal"
       id="path-effect4788"
       is_visible="true"
       pattern="m -7.8052081,114.96661 a 5.9655618,3.3889252 0 0 0 -4.0896719,0.92466 5.9655618,3.3889252 0 0 0 4.0896719,0.92743 5.9655618,3.3889252 0 0 0 4.0896731,-0.92466 5.9655618,3.3889252 0 0 0 -4.0896731,-0.92743 z"
       copytype="single_stretched"
       prop_scale="0.26458333"
       scale_y_rel="false"
       spacing="0"
       normal_offset="0"
       tang_offset="0"
       prop_units="false"
       vertical_pattern="false"
       fuse_tolerance="0" />
    <inkscape:path-effect
       effect="skeletal"
       id="path-effect4798"
       is_visible="true"
       pattern="m -7.8052081,114.96661 a 5.9655618,3.3889252 0 0 0 -4.0896719,0.92466 5.9655618,3.3889252 0 0 0 4.0896719,0.92743 5.9655618,3.3889252 0 0 0 4.0896731,-0.92466 5.9655618,3.3889252 0 0 0 -4.0896731,-0.92743 z"
       copytype="single_stretched"
       prop_scale="0.26458333"
       scale_y_rel="false"
       spacing="0"
       normal_offset="0"
       tang_offset="0"
       prop_units="false"
       vertical_pattern="false"
       fuse_tolerance="0" />
    <inkscape:path-effect
       effect="skeletal"
       id="path-effect4818"
       is_visible="true"
       pattern="m -7.8052081,114.96661 a 5.9655618,3.3889252 0 0 0 -4.0896719,0.92466 5.9655618,3.3889252 0 0 0 4.0896719,0.92743 5.9655618,3.3889252 0 0 0 4.0896731,-0.92466 5.9655618,3.3889252 0 0 0 -4.0896731,-0.92743 z"
       copytype="single_stretched"
       prop_scale="0.26458333"
       scale_y_rel="false"
       spacing="0"
       normal_offset="0"
       tang_offset="0"
       prop_units="false"
       vertical_pattern="false"
       fuse_tolerance="0" />
    <inkscape:path-effect
       effect="skeletal"
       id="path-effect4828"
       is_visible="true"
       pattern="m -7.8052081,114.96661 a 5.9655618,3.3889252 0 0 0 -4.0896719,0.92466 5.9655618,3.3889252 0 0 0 4.0896719,0.92743 5.9655618,3.3889252 0 0 0 4.0896731,-0.92466 5.9655618,3.3889252 0 0 0 -4.0896731,-0.92743 z"
       copytype="single_stretched"
       prop_scale="0.26458333"
       scale_y_rel="false"
       spacing="0"
       normal_offset="0"
       tang_offset="0"
       prop_units="false"
       vertical_pattern="false"
       fuse_tolerance="0" />
    <inkscape:path-effect
       effect="skeletal"
       id="path-effect4848"
       is_visible="true"
       pattern="m -7.8052081,114.96661 a 5.9655618,3.3889252 0 0 0 -4.0896719,0.92466 5.9655618,3.3889252 0 0 0 4.0896719,0.92743 5.9655618,3.3889252 0 0 0 4.0896731,-0.92466 5.9655618,3.3889252 0 0 0 -4.0896731,-0.92743 z"
       copytype="single_stretched"
       prop_scale="0.26458333"
       scale_y_rel="false"
       spacing="0"
       normal_offset="0"
       tang_offset="0"
       prop_units="false"
       vertical_pattern="false"
       fuse_tolerance="0" />
    <inkscape:path-effect
       effect="skeletal"
       id="path-effect4868"
       is_visible="true"
       pattern="m -7.8052081,114.96661 a 5.9655618,3.3889252 0 0 0 -4.0896719,0.92466 5.9655618,3.3889252 0 0 0 4.0896719,0.92743 5.9655618,3.3889252 0 0 0 4.0896731,-0.92466 5.9655618,3.3889252 0 0 0 -4.0896731,-0.92743 z"
       copytype="single_stretched"
       prop_scale="0.26458333"
       scale_y_rel="false"
       spacing="0"
       normal_offset="0"
       tang_offset="0"
       prop_units="false"
       vertical_pattern="false"
       fuse_tolerance="0" />
    <inkscape:path-effect
       effect="skeletal"
       id="path-effect4878"
       is_visible="true"
       pattern="m -7.8052081,114.96661 a 5.9655618,3.3889252 0 0 0 -4.0896719,0.92466 5.9655618,3.3889252 0 0 0 4.0896719,0.92743 5.9655618,3.3889252 0 0 0 4.0896731,-0.92466 5.9655618,3.3889252 0 0 0 -4.0896731,-0.92743 z"
       copytype="single_stretched"
       prop_scale="0.26458333"
       scale_y_rel="false"
       spacing="0"
       normal_offset="0"
       tang_offset="0"
       prop_units="false"
       vertical_pattern="false"
       fuse_tolerance="0" />
    <inkscape:path-effect
       effect="skeletal"
       id="path-effect4888"
       is_visible="true"
       pattern="m -7.8052081,114.96661 a 5.9655618,3.3889252 0 0 0 -4.0896719,0.92466 5.9655618,3.3889252 0 0 0 4.0896719,0.92743 5.9655618,3.3889252 0 0 0 4.0896731,-0.92466 5.9655618,3.3889252 0 0 0 -4.0896731,-0.92743 z"
       copytype="single_stretched"
       prop_scale="0.26458333"
       scale_y_rel="false"
       spacing="0"
       normal_offset="0"
       tang_offset="0"
       prop_units="false"
       vertical_pattern="false"
       fuse_tolerance="0" />
    <inkscape:path-effect
       effect="skeletal"
       id="path-effect4898"
       is_visible="true"
       pattern="m -7.8052081,114.96661 a 5.9655618,3.3889252 0 0 0 -4.0896719,0.92466 5.9655618,3.3889252 0 0 0 4.0896719,0.92743 5.9655618,3.3889252 0 0 0 4.0896731,-0.92466 5.9655618,3.3889252 0 0 0 -4.0896731,-0.92743 z"
       copytype="single_stretched"
       prop_scale="0.26458333"
       scale_y_rel="false"
       spacing="0"
       normal_offset="0"
       tang_offset="0"
       prop_units="false"
       vertical_pattern="false"
       fuse_tolerance="0" />
    <inkscape:path-effect
       effect="skeletal"
       id="path-effect4908"
       is_visible="true"
       pattern="m -7.8052081,114.96661 a 5.9655618,3.3889252 0 0 0 -4.0896719,0.92466 5.9655618,3.3889252 0 0 0 4.0896719,0.92743 5.9655618,3.3889252 0 0 0 4.0896731,-0.92466 5.9655618,3.3889252 0 0 0 -4.0896731,-0.92743 z"
       copytype="single_stretched"
       prop_scale="0.26458333"
       scale_y_rel="false"
       spacing="0"
       normal_offset="0"
       tang_offset="0"
       prop_units="false"
       vertical_pattern="false"
       fuse_tolerance="0" />
    <inkscape:path-effect
       effect="skeletal"
       id="path-effect4918"
       is_visible="true"
       pattern="m -7.8052081,114.96661 a 5.9655618,3.3889252 0 0 0 -4.0896719,0.92466 5.9655618,3.3889252 0 0 0 4.0896719,0.92743 5.9655618,3.3889252 0 0 0 4.0896731,-0.92466 5.9655618,3.3889252 0 0 0 -4.0896731,-0.92743 z"
       copytype="single_stretched"
       prop_scale="0.26458333"
       scale_y_rel="false"
       spacing="0"
       normal_offset="0"
       tang_offset="0"
       prop_units="false"
       vertical_pattern="false"
       fuse_tolerance="0" />
    <inkscape:path-effect
       effect="skeletal"
       id="path-effect4928"
       is_visible="true"
       pattern="m -7.8052081,114.96661 a 5.9655618,3.3889252 0 0 0 -4.0896719,0.92466 5.9655618,3.3889252 0 0 0 4.0896719,0.92743 5.9655618,3.3889252 0 0 0 4.0896731,-0.92466 5.9655618,3.3889252 0 0 0 -4.0896731,-0.92743 z"
       copytype="single_stretched"
       prop_scale="0.26458333"
       scale_y_rel="false"
       spacing="0"
       normal_offset="0"
       tang_offset="0"
       prop_units="false"
       vertical_pattern="false"
       fuse_tolerance="0" />
    <inkscape:path-effect
       effect="skeletal"
       id="path-effect4938"
       is_visible="true"
       pattern="m -7.8052081,114.96661 a 5.9655618,3.3889252 0 0 0 -4.0896719,0.92466 5.9655618,3.3889252 0 0 0 4.0896719,0.92743 5.9655618,3.3889252 0 0 0 4.0896731,-0.92466 5.9655618,3.3889252 0 0 0 -4.0896731,-0.92743 z"
       copytype="single_stretched"
       prop_scale="0.26458333"
       scale_y_rel="false"
       spacing="0"
       normal_offset="0"
       tang_offset="0"
       prop_units="false"
       vertical_pattern="false"
       fuse_tolerance="0" />
    <inkscape:path-effect
       effect="skeletal"
       id="path-effect4948"
       is_visible="true"
       pattern="m -7.8052081,114.96661 a 5.9655618,3.3889252 0 0 0 -4.0896719,0.92466 5.9655618,3.3889252 0 0 0 4.0896719,0.92743 5.9655618,3.3889252 0 0 0 4.0896731,-0.92466 5.9655618,3.3889252 0 0 0 -4.0896731,-0.92743 z"
       copytype="single_stretched"
       prop_scale="0.26458333"
       scale_y_rel="false"
       spacing="0"
       normal_offset="0"
       tang_offset="0"
       prop_units="false"
       vertical_pattern="false"
       fuse_tolerance="0" />
    <inkscape:path-effect
       effect="skeletal"
       id="path-effect4958"
       is_visible="true"
       pattern="m -7.8052081,114.96661 a 5.9655618,3.3889252 0 0 0 -4.0896719,0.92466 5.9655618,3.3889252 0 0 0 4.0896719,0.92743 5.9655618,3.3889252 0 0 0 4.0896731,-0.92466 5.9655618,3.3889252 0 0 0 -4.0896731,-0.92743 z"
       copytype="single_stretched"
       prop_scale="0.26458333"
       scale_y_rel="false"
       spacing="0"
       normal_offset="0"
       tang_offset="0"
       prop_units="false"
       vertical_pattern="false"
       fuse_tolerance="0" />
    <inkscape:path-effect
       effect="skeletal"
       id="path-effect4968"
       is_visible="true"
       pattern="m -7.8052081,114.96661 a 5.9655618,3.3889252 0 0 0 -4.0896719,0.92466 5.9655618,3.3889252 0 0 0 4.0896719,0.92743 5.9655618,3.3889252 0 0 0 4.0896731,-0.92466 5.9655618,3.3889252 0 0 0 -4.0896731,-0.92743 z"
       copytype="single_stretched"
       prop_scale="0.26458333"
       scale_y_rel="false"
       spacing="0"
       normal_offset="0"
       tang_offset="0"
       prop_units="false"
       vertical_pattern="false"
       fuse_tolerance="0" />
    <inkscape:path-effect
       effect="skeletal"
       id="path-effect4978"
       is_visible="true"
       pattern="m -7.8052081,114.96661 a 5.9655618,3.3889252 0 0 0 -4.0896719,0.92466 5.9655618,3.3889252 0 0 0 4.0896719,0.92743 5.9655618,3.3889252 0 0 0 4.0896731,-0.92466 5.9655618,3.3889252 0 0 0 -4.0896731,-0.92743 z"
       copytype="single_stretched"
       prop_scale="0.26458333"
       scale_y_rel="false"
       spacing="0"
       normal_offset="0"
       tang_offset="0"
       prop_units="false"
       vertical_pattern="false"
       fuse_tolerance="0" />
    <inkscape:path-effect
       effect="skeletal"
       id="path-effect4988"
       is_visible="true"
       pattern="m -7.8052081,114.96661 a 5.9655618,3.3889252 0 0 0 -4.0896719,0.92466 5.9655618,3.3889252 0 0 0 4.0896719,0.92743 5.9655618,3.3889252 0 0 0 4.0896731,-0.92466 5.9655618,3.3889252 0 0 0 -4.0896731,-0.92743 z"
       copytype="single_stretched"
       prop_scale="0.26458333"
       scale_y_rel="false"
       spacing="0"
       normal_offset="0"
       tang_offset="0"
       prop_units="false"
       vertical_pattern="false"
       fuse_tolerance="0" />
    <inkscape:path-effect
       effect="skeletal"
       id="path-effect4998"
       is_visible="true"
       pattern="m -7.8052081,114.96661 a 5.9655618,3.3889252 0 0 0 -4.0896719,0.92466 5.9655618,3.3889252 0 0 0 4.0896719,0.92743 5.9655618,3.3889252 0 0 0 4.0896731,-0.92466 5.9655618,3.3889252 0 0 0 -4.0896731,-0.92743 z"
       copytype="single_stretched"
       prop_scale="0.26458333"
       scale_y_rel="false"
       spacing="0"
       normal_offset="0"
       tang_offset="0"
       prop_units="false"
       vertical_pattern="false"
       fuse_tolerance="0" />
    <inkscape:path-effect
       effect="skeletal"
       id="path-effect5008"
       is_visible="true"
       pattern="m -7.8052081,114.96661 a 5.9655618,3.3889252 0 0 0 -4.0896719,0.92466 5.9655618,3.3889252 0 0 0 4.0896719,0.92743 5.9655618,3.3889252 0 0 0 4.0896731,-0.92466 5.9655618,3.3889252 0 0 0 -4.0896731,-0.92743 z"
       copytype="single_stretched"
       prop_scale="0.26458333"
       scale_y_rel="false"
       spacing="0"
       normal_offset="0"
       tang_offset="0"
       prop_units="false"
       vertical_pattern="false"
       fuse_tolerance="0" />
    <inkscape:path-effect
       effect="skeletal"
       id="path-effect5026"
       is_visible="true"
       pattern="m -7.8052081,114.96661 a 5.9655618,3.3889252 0 0 0 -4.0896719,0.92466 5.9655618,3.3889252 0 0 0 4.0896719,0.92743 5.9655618,3.3889252 0 0 0 4.0896731,-0.92466 5.9655618,3.3889252 0 0 0 -4.0896731,-0.92743 z"
       copytype="single_stretched"
       prop_scale="0.26458333"
       scale_y_rel="false"
       spacing="0"
       normal_offset="0"
       tang_offset="0"
       prop_units="false"
       vertical_pattern="false"
       fuse_tolerance="0" />
    <inkscape:path-effect
       effect="skeletal"
       id="path-effect5036"
       is_visible="true"
       pattern="m -7.8052081,114.96661 a 5.9655618,3.3889252 0 0 0 -4.0896719,0.92466 5.9655618,3.3889252 0 0 0 4.0896719,0.92743 5.9655618,3.3889252 0 0 0 4.0896731,-0.92466 5.9655618,3.3889252 0 0 0 -4.0896731,-0.92743 z"
       copytype="single_stretched"
       prop_scale="0.26458333"
       scale_y_rel="false"
       spacing="0"
       normal_offset="0"
       tang_offset="0"
       prop_units="false"
       vertical_pattern="false"
       fuse_tolerance="0" />
    <inkscape:path-effect
       effect="skeletal"
       id="path-effect5046"
       is_visible="true"
       pattern="m -7.8052081,114.96661 a 5.9655618,3.3889252 0 0 0 -4.0896719,0.92466 5.9655618,3.3889252 0 0 0 4.0896719,0.92743 5.9655618,3.3889252 0 0 0 4.0896731,-0.92466 5.9655618,3.3889252 0 0 0 -4.0896731,-0.92743 z"
       copytype="single_stretched"
       prop_scale="0.26458333"
       scale_y_rel="false"
       spacing="0"
       normal_offset="0"
       tang_offset="0"
       prop_units="false"
       vertical_pattern="false"
       fuse_tolerance="0" />
    <inkscape:path-effect
       effect="skeletal"
       id="path-effect5056"
       is_visible="true"
       pattern="m -7.8052081,114.96661 a 5.9655618,3.3889252 0 0 0 -4.0896719,0.92466 5.9655618,3.3889252 0 0 0 4.0896719,0.92743 5.9655618,3.3889252 0 0 0 4.0896731,-0.92466 5.9655618,3.3889252 0 0 0 -4.0896731,-0.92743 z"
       copytype="single_stretched"
       prop_scale="0.26458333"
       scale_y_rel="false"
       spacing="0"
       normal_offset="0"
       tang_offset="0"
       prop_units="false"
       vertical_pattern="false"
       fuse_tolerance="0" />
    <inkscape:path-effect
       effect="skeletal"
       id="path-effect5066"
       is_visible="true"
       pattern="m -7.8052081,114.96661 a 5.9655618,3.3889252 0 0 0 -4.0896719,0.92466 5.9655618,3.3889252 0 0 0 4.0896719,0.92743 5.9655618,3.3889252 0 0 0 4.0896731,-0.92466 5.9655618,3.3889252 0 0 0 -4.0896731,-0.92743 z"
       copytype="single_stretched"
       prop_scale="0.26458333"
       scale_y_rel="false"
       spacing="0"
       normal_offset="0"
       tang_offset="0"
       prop_units="false"
       vertical_pattern="false"
       fuse_tolerance="0" />
  </defs>
  <sodipodi:namedview
     id="base"
     pagecolor="#ffffff"
     bordercolor="#666666"
     borderopacity="1.0"
     inkscape:pageopacity="0.0"
     inkscape:pageshadow="2"
     inkscape:zoom="6.4"
     inkscape:cx="46.25"
     inkscape:cy="40"
     inkscape:document-units="px"
     inkscape:current-layer="layer1"
     showgrid="false"
     inkscape:window-width="1440"
     inkscape:window-height="836"
     inkscape:window-x="0"
     inkscape:window-y="27"
     inkscape:window-maximized="1"
     inkscape:grid-bbox="true" />
  <metadata
     id="metadata1027">
    <rdf:RDF>
      <cc:Work
         rdf:about="">
        <dc:format>image/svg+xml</dc:format>
        <dc:type
           rdf:resource="http://purl.org/dc/dcmitype/StillImage" />
        <dc:title />
      </cc:Work>
    </rdf:RDF>
  </metadata>
  <g
     inkscape:label="Layer 1"
     inkscape:groupmode="layer"
     id="layer1">
    <g
       id="g979">
      <circle
         r="39.517723"
         cy="40.156246"
         cx="39.999996"
         id="path906"
         style="opacity:0.56800022;fill:#d4aa00;stroke:none;stroke-width:0.17881322;stroke-miterlimit:4;stroke-dasharray:none" />
      <g
         style="fill:#ffffff"
         transform="matrix(0.77729181,0,0,0.77729181,-21.579709,-49.493622)"
         id="g948">
        <path
           style="fill:#ffffff;stroke:none;stroke-width:0.26458332px;stroke-linecap:butt;stroke-linejoin:miter;stroke-opacity:1"
           d="m 65.319474,104.89088 c 0.183824,-0.0309 0.369388,-0.0558 0.556461,-0.0742 0,0 0,0 0,0 1.046253,-0.095 2.055525,-0.0174 2.957493,0.0388 1.732592,0.10535 3.343731,0.18165 4.720559,0.32037 -1.28026,0.51843 -2.888009,0.93634 -4.692478,1.11169 -0.960792,0.0938 -1.918804,0.1007 -2.809592,0.20898 0,0 0,0 0,0 -0.150836,0.017 -0.301733,0.0384 -0.452805,0.0636 -0.765868,0.12736 -1.536864,0.35504 -2.296516,0.61469 -1.89412,0.65327 -3.698529,1.40045 -5.225926,1.83982 1.123629,-1.07926 2.71783,-2.33899 4.632908,-3.26746 0.797789,-0.38765 1.673705,-0.69833 2.609896,-0.8563 z"
           id="path4580"
           inkscape:connector-curvature="0"
           inkscape:path-effect="#path-effect4588"
           inkscape:original-d="m 73.554166,105.17708 c -8.334375,1.19063 -6.746875,-1.19062 -15.478125,3.83646" />
        <path
           style="fill:#ffffff;stroke:none;stroke-width:0.26458332px;stroke-linecap:butt;stroke-linejoin:miter;stroke-opacity:1"
           d="m 92.213884,101.88756 c -0.182392,0.0192 -0.363818,0.0404 -0.544182,0.0632 -1.886089,0.23153 -3.674289,0.67295 -5.239571,1.21567 l 0,0 0,0 0,0 c -0.595644,0.20643 -1.152345,0.42565 -1.666578,0.65513 l 0,0 c -0.158152,0.0706 -0.311669,0.14182 -0.460869,0.21423 l 0,0 c -10e-7,0 -10e-7,0 -10e-7,0 -0.04099,0.0199 -0.08159,0.0399 -0.121852,0.0599 0,0 0,0 0,0 -0.01065,0.005 -0.02127,0.0106 -0.03186,0.016 -0.0039,0.002 -0.0078,0.004 -0.0117,0.006 0.01356,-3.5e-4 -4.65e-4,1e-5 0.0131,-3.4e-4 0.0043,-1.1e-4 0.03127,-8e-4 0.03559,-9.1e-4 0,0 0,0 0,0 -0.03018,7.7e-4 0.16576,-0.004 0.135576,-0.004 0,0 0,0 10e-7,0 l 0,0 c 0.164897,-0.004 0.334489,-0.01 0.506246,-0.0163 l 0,0 c 0.557581,-0.0212 1.154353,-0.0548 1.773717,-0.099 l 0,0 10e-7,0 0,0 c 1.617765,-0.11546 3.43566,-0.3107 5.242014,-0.49171 0.177508,-0.0172 0.354624,-0.0348 0.531533,-0.0525 1.682053,-0.16997 3.128139,-0.32333 4.629412,-0.24429 0,0 0,0 0,0 0.663546,0.0424 1.237987,0.0935 1.762798,0.32073 0.4398,0.18492 0.814465,0.52713 0.979503,0.98611 0.04736,-0.48607 -0.179763,-1.0621 -0.661484,-1.47581 -0.525418,-0.45473 -1.202673,-0.73573 -1.909223,-0.91096 -10e-7,0 -10e-7,0 -10e-7,0 -1.578721,-0.40845 -3.259963,-0.41941 -4.96216,-0.24144 z"
           id="path4590"
           inkscape:connector-curvature="0"
           inkscape:path-effect="#path-effect4598"
           inkscape:original-d="m 84.137499,104.11875 c 0,0 15.08125,-3.83646 15.610418,0.39687"
           sodipodi:nodetypes="cc" />
        <path
           style="fill:#ffffff;stroke:none;stroke-width:0.26458332px;stroke-linecap:butt;stroke-linejoin:miter;stroke-opacity:1"
           d="m 66.68847,113.44383 c -0.04479,0.008 -0.08957,0.0175 -0.134318,0.0274 0,0 -10e-7,0 -10e-7,0 -1.959353,0.46313 -3.616011,1.91652 -4.641864,2.81808 1.145195,-0.64261 3.029983,-1.95979 4.751265,-2.3407 0,0 0,0 0,0 0.03954,-0.009 0.07912,-0.0183 0.118747,-0.0264 1.887874,-0.38993 3.763296,0.67192 4.919531,1.57394 -0.947624,-1.12819 -2.820648,-2.46204 -5.01336,-2.05227 z"
           id="path4600"
           inkscape:connector-curvature="0"
           inkscape:path-effect="#path-effect4608"
           inkscape:original-d="m 61.912499,116.28958 c 3.175,-2.24896 6.085417,-4.36562 9.789583,-0.79375" />
        <path
           style="fill:#ffffff;stroke:none;stroke-width:0.26458332px;stroke-linecap:butt;stroke-linejoin:miter;stroke-opacity:1"
           d="m 91.397137,111.42046 c -0.487471,0.10047 -0.959736,0.25039 -1.408345,0.43255 0,0 0,0 0,0 l 0,0 c -0.926203,0.37434 -1.737318,0.87009 -2.41311,1.38489 l 0,0 0,0 0,0 c -0.247146,0.1882 -0.473381,0.37696 -0.679909,0.56639 l 0,0 c -0.0622,0.0571 -0.122195,0.11378 -0.180195,0.17093 0,0 0,0 0,0 -0.01595,0.0157 -0.03169,0.0314 -0.04725,0.0472 0,0 0,0 0,0 -0.0058,0.006 -0.01173,0.0119 -0.01743,0.0179 0.0068,-0.005 0.01385,-0.009 0.02074,-0.0137 0,0 0,0 0,0 0.01847,-0.0121 0.03707,-0.0241 0.05586,-0.0362 0,0 0,0 0,0 0.0684,-0.0439 0.137941,-0.0873 0.209652,-0.13134 l 0,0 c 0.238035,-0.14629 0.487779,-0.29234 0.756103,-0.44165 l 0,0 0,0 0,0 c 0.731073,-0.40663 1.5578,-0.81514 2.458732,-1.13477 l 0,0 c 0,0 0,0 0,0 0.436707,-0.15409 0.88763,-0.28675 1.344623,-0.3818 0.58134,-0.12111 1.159304,-0.17868 1.730978,-0.15097 1.297675,0.0576 2.416374,0.6129 3.212783,1.23269 -0.648094,-0.77735 -1.753361,-1.52751 -3.180054,-1.67286 -0.616718,-0.0607 -1.243645,-0.0167 -1.863178,0.11077 z"
           id="path4650"
           inkscape:connector-curvature="0"
           inkscape:path-effect="#path-effect4658"
           inkscape:original-d="m 86.651041,114.04062 c 0,0 5.820833,-4.89479 9.789583,-1.05833" />
        <path
           style="fill:#ffffff;stroke:none;stroke-width:0.26458332px;stroke-linecap:butt;stroke-linejoin:miter;stroke-opacity:1"
           d="m 73.910163,133.18453 c 0.0249,0.0306 0.05073,0.0606 0.07753,0.0901 0,0 0,0 0,0 0.736809,0.7533 1.803612,0.93184 2.476778,1.00692 -0.555026,-0.32737 -1.599963,-0.75991 -2.12014,-1.34195 0,0 0,0 0,0 -0.02179,-0.0222 -0.04288,-0.0449 -0.06331,-0.068 -0.552927,-0.62589 -0.647333,-1.71687 -0.726483,-2.42678 -0.220968,0.6879 -0.36812,1.85008 0.355632,2.73971 z"
           id="path4660"
           inkscape:connector-curvature="0"
           inkscape:path-effect="#path-effect4668"
           inkscape:original-d="m 76.464582,134.28125 c -1.984375,-0.66146 -3.175,-1.19063 -2.910416,-3.83646" />
        <path
           style="fill:#ffffff;stroke:none;stroke-width:0.26458332px;stroke-linecap:butt;stroke-linejoin:miter;stroke-opacity:1"
           d="m 88.578208,131.28193 c -0.429623,0.72961 -1.308788,1.45536 -1.795075,1.94067 0.678805,-0.25842 1.654308,-0.7658 2.211104,-1.69316 0.0656,-0.1094 0.124611,-0.2235 0.176064,-0.34221 0,0 0,0 0,0 0.385298,-0.9679 -0.07084,-1.87801 -0.534582,-2.33015 0.235871,0.59489 0.433078,1.45816 0.09326,2.13515 0,0 0,0 0,0 -0.04497,0.0994 -0.09537,0.19576 -0.150772,0.2897 z"
           id="path4670"
           inkscape:connector-curvature="0"
           inkscape:path-effect="#path-effect4678"
           inkscape:original-d="m 86.783332,133.22291 c 2.248959,-1.4552 2.910417,-2.77812 1.852084,-4.36562" />
        <path
           style="fill:#ffffff;stroke:none;stroke-width:0.26458332px;stroke-linecap:butt;stroke-linejoin:miter;stroke-opacity:1"
           d="m 77.056619,132.49079 c 0.481435,-0.0161 0.910547,0.0455 1.324423,0.22251 0,0 0,0 0,0 l 0,0 c 0.263981,0.10709 0.491184,0.26716 0.661117,0.46734 l 0,0 c 0.0576,0.068 0.108024,0.13854 0.150708,0.21144 0.01297,0.0222 0.02516,0.0444 0.0363,0.067 0.0046,0.009 0.0092,0.0189 0.01312,0.0282 2.37e-4,-0.0107 -2.89e-4,-0.022 -8.19e-4,-0.0327 -0.0014,-0.0263 -0.0042,-0.0527 -0.0081,-0.0794 -0.01271,-0.0877 -0.03677,-0.17662 -0.07168,-0.26518 l 0,0 c -0.107586,-0.26989 -0.317983,-0.52889 -0.614104,-0.71503 l 0,0 c 0,0 -10e-7,0 -10e-7,0 -0.441366,-0.27062 -0.95811,-0.39336 -1.501706,-0.3868 -1.07989,0.0137 -2.082135,0.52786 -2.701721,0.93116 0.741072,-0.12015 1.779146,-0.4179 2.71243,-0.44852 z"
           id="path4680"
           inkscape:connector-curvature="0"
           inkscape:path-effect="#path-effect4688"
           inkscape:original-d="m 79.242707,133.4875 c 0,0 -0.404055,-2.28632 -4.898382,-0.54785" />
        <path
           style="fill:#ffffff;stroke:none;stroke-width:0.26458332px;stroke-linecap:butt;stroke-linejoin:miter;stroke-opacity:1"
           d="m 85.094586,131.93844 c 0.235138,-0.0552 0.488446,-0.0238 0.684107,0.10015 0.335883,0.46064 0.678445,0.86475 1.00407,1.18399 -0.153811,-0.42968 -0.395207,-0.93691 -0.697526,-1.47291 -0.294601,-0.23524 -0.686324,-0.33696 -1.068069,-0.27723 -0.09797,0.0154 -0.194194,0.0413 -0.286699,0.0775 0,0 -10e-7,0 -10e-7,0 -0.86833,0.39322 -1.299799,1.24022 -1.519316,1.80506 0.430276,-0.39972 1.057365,-1.11609 1.705984,-1.35636 0,0 10e-7,0 10e-7,0 0.05692,-0.0259 0.11654,-0.046 0.177449,-0.0602 z"
           id="path4700"
           inkscape:connector-curvature="0"
           inkscape:path-effect="#path-effect4708"
           inkscape:original-d="m 86.783131,133.2226 c 0,0 -1.058132,-3.57156 -3.571674,0.13261" />
        <path
           style="fill:#ffffff;stroke:none;stroke-width:0.26458332px;stroke-linecap:butt;stroke-linejoin:miter;stroke-opacity:1"
           d="m 66.813551,116.2737 c -1.954564,0.21005 -3.431229,0.19479 -4.901177,0.0152 1.33325,0.49349 3.022841,0.67981 4.965895,0.47129 0.54307,-0.0585 1.077083,-0.14445 1.594671,-0.24966 0,0 0,0 0,0 1.227483,-0.33511 2.344051,-0.68566 3.228862,-1.01402 5.3e-5,-1.7e-4 6.1e-5,-3.2e-4 2.3e-5,-4.4e-4 3.8e-5,1.2e-4 2.4e-5,2.5e-4 -4.2e-5,3.7e-4 -0.945658,0.11673 -2.090841,0.31608 -3.319468,0.57829 0,0 0,0 0,0 -0.514972,0.0735 -1.039119,0.14222 -1.568764,0.19895 z"
           id="path4710"
           inkscape:connector-curvature="0"
           inkscape:path-effect="#path-effect4718"
           inkscape:original-d="m 61.912288,116.28928 c 4.365836,1.05863 9.78954,-0.79318 9.78954,-0.79318" />
        <path
           style="fill:#ffffff;stroke:none;stroke-width:0.26458332px;stroke-linecap:butt;stroke-linejoin:miter;stroke-opacity:1"
           d="m 91.904517,114.30689 c -0.290153,-0.005 -0.580821,-0.0157 -0.869995,-0.0301 0,0 0,0 0,0 -1.524346,-0.22157 -2.958284,-0.36786 -4.097214,-0.41809 1.096707,0.30929 2.514828,0.62154 4.043587,0.89081 0,0 10e-7,0 10e-7,0 0.296549,0.0247 0.597038,0.0413 0.899523,0.0463 0.807854,0.0129 1.595919,-0.058 2.343429,-0.2555 1.055131,-0.27095 1.863985,-0.82996 2.216831,-1.55757 -0.510079,0.62783 -1.294649,0.97694 -2.304031,1.16932 -0.717585,0.13145 -1.454553,0.16726 -2.232131,0.15483 z"
           id="path4720"
           inkscape:connector-curvature="0"
           inkscape:path-effect="#path-effect4728"
           inkscape:original-d="m 86.937148,113.85905 c 0,0 7.650882,2.03418 9.503219,-0.8765" />
        <path
           style="fill:#ffffff;stroke:none;stroke-width:0.26458332px;stroke-linecap:butt;stroke-linejoin:miter;stroke-opacity:1"
           d="m 52.288663,111.47438 c -0.859257,-0.40699 -1.723871,-0.71997 -2.414421,-0.87362 0.555645,0.43722 1.340062,0.906 2.195622,1.31186 0.07245,0.0343 0.14515,0.068 0.218002,0.10117 0.514684,0.26826 0.90607,0.40331 1.284999,0.69585 0.04943,0.0841 0.158521,0.11508 0.127035,0.11326 -0.02082,0.10367 -0.242718,0.12631 -0.386365,0.15902 0.140802,0.032 0.347675,0.11001 0.532234,-0.0441 0.09373,-0.16058 0.02664,-0.35377 -0.07709,-0.42301 -0.325457,-0.41228 -0.785661,-0.67781 -1.262922,-0.93532 -0.07199,-0.0355 -0.144389,-0.0706 -0.217097,-0.10509 z"
           id="path4750"
           inkscape:connector-curvature="0"
           inkscape:path-effect="#path-effect4758"
           inkscape:original-d="m 49.873958,110.60104 c 0,0 5.55625,2.38125 3.439583,2.38125" />
        <path
           style="fill:#ffffff;stroke:none;stroke-width:0.26458332px;stroke-linecap:butt;stroke-linejoin:miter;stroke-opacity:1"
           d="m 104.05151,96.471675 c -0.0259,0.520351 -0.0575,1.039639 -0.0921,1.556759 0,0 0,10e-7 0,10e-7 -0.35635,2.967625 -0.62719,5.753295 -0.77222,7.942295 0.40903,-2.15403 0.84697,-4.92469 1.24792,-7.89426 0,0 0,-10e-7 0,-10e-7 0.0428,-0.520378 0.0788,-1.044559 0.10515,-1.57081 0.0812,-1.628956 0.0654,-3.203664 -0.10152,-4.73368 -0.19898,-1.906958 -0.5375,-3.459833 -1.51549,-4.586794 0.83947,1.244993 1.00241,2.70096 1.13306,4.619788 0.0957,1.516412 0.076,3.049502 -0.005,4.666702 z"
           id="path4760"
           inkscape:connector-curvature="0"
           inkscape:path-effect="#path-effect4768"
           inkscape:original-d="m 103.1875,105.97083 c 0,0 2.77812,-14.816666 -0.26458,-18.785416" />
        <path
           style="fill:#ffffff;stroke:none;stroke-width:0.26458332px;stroke-linecap:butt;stroke-linejoin:miter;stroke-opacity:1"
           d="m 100.73993,138.33605 c 0.48397,-1.37459 0.9196,-2.75003 1.31258,-4.10655 0,0 0,0 0,0 l 0,0 c 0.58177,-2.00712 1.04192,-3.89845 1.3954,-5.64566 l 0,0 0,0 0,0 c 0.11564,-0.57158 0.21748,-1.11601 0.30616,-1.64202 l 0,0 c 0.0252,-0.14938 0.0491,-0.29608 0.0716,-0.44142 l 0,0 c 0,0 0,0 0,0 0.006,-0.0386 0.0118,-0.077 0.0176,-0.11535 0,0 0,0 0,0 0.002,-0.0137 0.004,-0.0275 0.006,-0.0412 -0.003,0.0134 -0.007,0.027 -0.01,0.0404 0,0 0,0 0,0 -0.009,0.0376 -0.0186,0.0753 -0.0281,0.1132 0,0 0,0 0,0 l 0,0 c -0.0357,0.14279 -0.0724,0.2863 -0.11032,0.43303 l 0,0 c -0.13387,0.51846 -0.2752,1.04748 -0.42941,1.61145 l 0,0 0,0 0,0 c -0.47247,1.7279 -1.00614,3.5643 -1.63813,5.56051 l 0,0 c 0,0 0,0 0,0 -0.42526,1.34258 -0.87433,2.70226 -1.35627,4.07063 -1.616788,4.59246 -3.198919,8.12386 -4.895217,11.3215 1.932245,-2.9392 3.764283,-6.63407 5.357957,-11.15856 z"
           id="path4770"
           inkscape:connector-curvature="0"
           inkscape:path-effect="#path-effect4778"
           inkscape:original-d="m 103.84896,126.34375 c 0,0 -2.51354,13.09687 -8.46667,23.15104" />
        <path
           style="fill:#ffffff;stroke:none;stroke-width:0.26458332px;stroke-linecap:butt;stroke-linejoin:miter;stroke-opacity:1"
           d="m 63.06386,143.17336 c -0.665479,-0.9933 -1.293691,-1.99749 -1.890532,-2.99559 -1.217971,-2.37925 -2.377348,-4.54985 -3.361517,-6.2935 0.789119,1.83911 1.8147,4.08285 2.972027,6.5024 0.572484,1.02116 1.193286,2.04499 1.866042,3.04964 2.329332,3.47727 4.821804,6.03141 7.332187,7.77856 -2.347994,-2.04506 -4.581427,-4.55243 -6.918207,-8.04151 z"
           id="path4780"
           inkscape:connector-curvature="0"
           inkscape:path-effect="#path-effect4788"
           inkscape:original-d="m 57.811458,133.88437 c 0,0 4.365625,11.24479 12.170833,17.33021" />
        <path
           style="fill:#ffffff;stroke:none;stroke-width:0.26458332px;stroke-linecap:butt;stroke-linejoin:miter;stroke-opacity:1"
           d="m 51.982371,124.05219 c -0.0064,-0.0227 -0.09354,-0.33509 -0.0999,-0.35779 -0.55788,-2.01161 -1.011786,-3.9753 -1.415829,-5.77262 l 0,0 0,-1e-5 0,0 c -0.156068,-0.69431 -0.294987,-1.32344 -0.430104,-1.94139 l 0,0 c -0.04137,-0.18922 -0.08061,-0.36925 -0.119583,-0.54995 l 0,0 c -0.01064,-0.0493 -0.02112,-0.0981 -0.0315,-0.14675 0,0 0,0 0,0 6.61e-4,0.003 -0.0088,-0.0415 -0.0082,-0.0384 -4.9e-5,-2.3e-4 -0.0029,-0.0138 -0.003,-0.014 3.74e-4,0.005 7.66e-4,0.01 0.0012,0.0143 0.0011,0.013 0.0021,0.0261 0.0032,0.0392 0,0 0,0 0,0 0.0042,0.0496 0.0085,0.0994 0.01306,0.14959 l 0,0 c 0.01649,0.18279 0.03496,0.36915 0.0553,0.5606 l 0,0 c 0.06594,0.6206 0.14993,1.2794 0.253355,1.9765 l 0,0 0,0 0,0 c 0.270075,1.82071 0.656857,3.82518 1.210307,5.85283 0.03261,0.11993 0.06558,0.23997 0.09902,0.36005 0.525319,1.88502 1.123733,3.61419 2.076122,5.14176 0,0 10e-7,0 10e-7,0 0.3861,0.62506 0.818563,1.18088 1.394659,1.53647 0.493356,0.30348 1.077059,0.32583 1.508134,0.11182 -0.454499,0.15727 -0.994701,0.0623 -1.413173,-0.252 -0.510167,-0.38041 -0.861827,-0.93052 -1.207328,-1.56083 0,0 0,0 0,0 -0.840173,-1.5486 -1.357832,-3.22442 -1.885812,-5.10928 z"
           id="path4790"
           inkscape:connector-curvature="0"
           inkscape:path-effect="#path-effect4798"
           inkscape:original-d="m 49.873958,115.23125 c 0,0 2.513541,17.4625 6.614583,15.74271" />
        <path
           style="fill:#ffffff;stroke:none;stroke-width:0.26458332px;stroke-linecap:butt;stroke-linejoin:miter;stroke-opacity:1"
           d="m 64.853451,116.05519 c -0.04074,-0.0163 -0.0623,-0.0279 -0.05244,-0.0448 0,0 0,0 0,0 -0.185025,-0.44317 -0.266175,-0.91597 -0.639258,-1.17622 0.09958,0.37608 0.02048,0.80223 0.18704,1.33772 0,0 0,0 0,0 0.06333,0.1326 0.151103,0.23126 0.245947,0.2993 0.100399,0.0719 0.206984,0.10853 0.301853,0.11933 0,0 0,0 0,0 0.516502,0.12092 1.018327,0.0573 1.381495,-0.036 -0.392041,-0.19015 -0.775145,-0.26443 -1.251897,-0.42524 0,0 0,0 0,0 -0.06797,-0.0353 -0.128442,-0.0563 -0.172745,-0.0741 z"
           id="path4810"
           inkscape:connector-curvature="0"
           inkscape:path-effect="#path-effect4818"
           inkscape:original-d="m 64.161458,114.83437 c 0.926041,1.32292 -0.529167,1.45521 2.116666,1.71979" />
        <path
           style="fill:#ffffff;stroke:none;stroke-width:0.26458332px;stroke-linecap:butt;stroke-linejoin:miter;stroke-opacity:1"
           d="m 69.532541,114.66088 c -0.04269,-0.117 -0.09956,-0.22665 -0.167657,-0.32597 0,0 0,0 0,0 -0.150158,-0.22643 -0.336262,-0.40406 -0.528095,-0.53155 l 0,0 0,0 c -0.07096,-0.047 -0.142441,-0.0872 -0.213884,-0.12022 -0.02231,-0.0103 -0.04451,-0.0199 -0.06675,-0.0287 -0.0094,-0.004 -0.01901,-0.007 -0.02849,-0.0106 0.0038,0.009 0.0079,0.0181 0.01167,0.0272 0.0092,0.0212 0.01881,0.0432 0.0284,0.0649 0.03069,0.0695 0.0643,0.14275 0.09915,0.21633 l 1e-6,0 0,0 c 0.09273,0.19712 0.196973,0.40278 0.2928,0.61166 0,0 0,0 0,0 0.03696,0.0865 0.07268,0.1771 0.104941,0.26682 0.160575,0.4446 0.22064,0.79455 0.12362,1.19414 0.366013,-0.21005 0.552971,-0.79008 0.344294,-1.3639 z"
           id="path4820"
           inkscape:connector-curvature="0"
           inkscape:path-effect="#path-effect4828"
           inkscape:original-d="m 68.527082,113.64375 c 0,0 1.455209,1.32291 0.661459,2.38125" />
        <path
           style="fill:#ffffff;stroke:none;stroke-width:0.26458332px;stroke-linecap:butt;stroke-linejoin:miter;stroke-opacity:1"
           d="m 94.16556,112.76226 c 0,0 -2.19e-4,-0.002 -2.19e-4,-0.002 -0.03077,-0.26698 -0.09583,-0.52598 -0.189782,-0.7547 l 0,0 0,0 c -0.03603,-0.0877 -0.07603,-0.1703 -0.119478,-0.24664 -0.0138,-0.0243 -0.02794,-0.0479 -0.04239,-0.0708 -0.0062,-0.01 -0.01222,-0.0192 -0.0185,-0.0286 -0.0041,0.0105 -0.0079,0.0212 -0.0118,0.0319 -0.0091,0.0255 -0.0177,0.0517 -0.02585,0.0784 -0.02562,0.0841 -0.04646,0.17347 -0.06223,0.26705 l 0,0 0,0 c -0.0411,0.24395 -0.04695,0.51125 -0.01685,0.77884 0,0 2.15e-4,0.002 2.15e-4,0.002 0.03054,0.26645 0.09568,0.52498 0.190849,0.75323 0,0 0,0 0,0 l 0,0 c 0.08069,0.0908 0.13813,0.17387 0.167044,0.24886 l 0,0 c 0.01682,0.0155 0.02482,0.0391 0.02587,0.0633 0,0 0,0 0,0 4.33e-4,0.01 -0.0028,0.0216 -0.0012,0.0301 5.23e-4,-5e-5 5.23e-4,-5e-5 5.23e-4,-5e-5 -2.09e-4,-0.002 -0.0012,-0.003 -0.0021,-0.005 -8.59e-4,0.002 -0.0015,0.003 -0.0028,0.005 0,0 0,0 0,0 -0.0091,-0.008 -0.01049,-0.019 -0.01316,-0.0289 0,0 0,0 0,0 -0.0064,-0.0237 -0.0051,-0.0495 0.0049,-0.0844 l 0,0 c 0.0077,-0.0856 0.04437,-0.17223 0.103292,-0.2629 l 0,0 c 0,0 0,0 0,0 0.03867,-0.24292 0.04368,-0.50881 0.01358,-0.77491 z"
           id="path4840"
           inkscape:connector-curvature="0"
           inkscape:path-effect="#path-effect4848"
           inkscape:original-d="m 93.79479,111.65937 c 0,0 0.264584,2.38125 0.264584,2.24896" />
        <path
           style="fill:#ffffff;stroke:none;stroke-width:0.26458332px;stroke-linecap:butt;stroke-linejoin:miter;stroke-opacity:1"
           d="m 89.908849,113.19569 c -0.147777,-0.27048 -0.366569,-0.48884 -0.611653,-0.61046 -0.03075,0.2719 0.03416,0.57422 0.181456,0.84511 0.147777,0.27049 0.366569,0.48885 0.611653,0.61046 0.03075,-0.27189 -0.03416,-0.57421 -0.181456,-0.84511 z"
           id="path4860"
           inkscape:connector-curvature="0"
           inkscape:path-effect="#path-effect4868"
           inkscape:original-d="m 89.296874,112.58541 0.79375,1.45521" />
        <path
           style="fill:#ffffff;stroke:none;stroke-width:0.26458332px;stroke-linecap:butt;stroke-linejoin:miter;stroke-opacity:1"
           d="m 73.529021,87.688601 c -0.49924,0.0116 -0.998429,0.02127 -1.497493,0.02934 -4.714938,-0.05745 -9.483654,-0.102469 -13.908648,-0.142334 -1.174211,2.415638 -2.288801,4.729833 -3.34118,6.944296 0,0 -10e-7,2e-6 -10e-7,2e-6 -0.758829,1.781313 -1.409475,3.427495 -1.873187,5.128073 -0.18127,0.664053 -0.331856,1.310883 -0.369021,1.968263 -0.02549,0.41946 -0.02476,0.87693 0.244606,1.17983 -0.258081,-0.31261 -0.237269,-0.75935 -0.201234,-1.17664 0.05894,-0.65084 0.229147,-1.28521 0.429424,-1.941466 0.513052,-1.679361 1.200727,-3.291998 1.997299,-5.053038 0,0 0,-10e-7 0,-10e-7 1.064271,-2.167456 2.156553,-4.422015 3.284086,-6.771514 4.394931,0.118226 9.097127,0.243083 13.737255,0.353418 0.500564,-0.0074 1.001375,-0.01672 1.502333,-0.02831 3.419668,-0.07927 6.780466,-0.262213 10.100174,-0.633627 3.419741,-0.392874 6.60963,-0.884661 9.608074,-2.080818 l 5.4e-5,4.8e-5 c 0.007,0.0074 0.01416,0.01515 0.0211,0.02261 0.004,0.0043 0.05391,0.05805 0.05786,0.0623 0.02676,0.02886 0.190111,0.205429 0.216872,0.234284 0.326101,0.291786 0.647786,0.584155 0.964691,0.875734 0.994166,0.914746 1.930455,1.809161 2.82316,2.715723 0.957602,0.972925 1.821572,1.878818 2.555347,2.902967 0.255316,0.357052 0.495896,0.711004 0.627066,1.113142 0.0749,0.234742 0.0954,0.526929 -0.0985,0.673395 0.19918,-0.139225 0.19506,-0.439709 0.12379,-0.681165 -0.11867,-0.411109 -0.3498,-0.77962 -0.594695,-1.145283 C 99.234969,91.185775 98.390849,90.24559 97.457878,89.24756 96.586984,88.315546 95.668049,87.395389 94.691026,86.457977 94.379414,86.15899 94.06268,85.859261 93.74107,85.560089 c -0.108962,-0.08723 -0.218889,-0.174592 -0.329781,-0.261874 -0.02961,-0.0233 -0.05929,-0.04661 -0.08906,-0.06989 -0.01073,-0.0084 -0.02173,-0.01701 -0.03249,-0.02538 l 0,0 c -2.996494,1.121784 -6.208001,1.547838 -9.703982,1.898544 -3.305483,0.340925 -6.646748,0.508082 -10.056734,0.587112 z"
           id="path4870"
           inkscape:connector-curvature="0"
           inkscape:path-effect="#path-effect4878"
           inkscape:original-d="m 52.784375,102.79583 c -1.5875,-1.85208 5.423958,-15.081249 5.423958,-15.081249 0,0 25.135416,1.455208 35.057291,-2.38125 0,0 8.598956,7.672919 7.143756,8.731252" />
        <path
           style="fill:#ffffff;stroke:none;stroke-width:0.26458332px;stroke-linecap:butt;stroke-linejoin:miter;stroke-opacity:1"
           d="m 81.602716,139.74508 c -1.447132,0.0753 -2.851719,0.34163 -4.178937,0.79669 0,0 0,0 0,0 l 0,0 c -1.554824,0.53504 -2.911781,1.26598 -4.047177,2.08216 l 0,0 0,0 c -0.380397,0.27343 -0.729361,0.55139 -1.049132,0.83796 l 0,0 c -0.09246,0.0829 -0.181773,0.16582 -0.267955,0.2503 0,0 -1e-6,0 -1e-6,0 -0.02318,0.0227 -0.04606,0.0455 -0.06861,0.0685 0,0 0,0 0,0 -0.0081,0.008 -0.01645,0.0168 -0.02443,0.0252 0.0088,-0.007 0.01796,-0.015 0.02694,-0.0224 0,0 0,0 0,0 0.02484,-0.0204 0.04998,-0.0405 0.07539,-0.0605 0,0 1e-6,0 1e-6,0 0.09448,-0.0746 0.191523,-0.14757 0.291535,-0.22053 l 0,0 c 0.345601,-0.25211 0.714003,-0.49478 1.111261,-0.73465 l 0,0 0,0 c 1.184426,-0.7151 2.548524,-1.35445 4.082554,-1.82606 l 0,0 c 0,0 0,0 0,0 1.303719,-0.40237 2.66686,-0.63851 4.073705,-0.71081 3.943201,-0.2033 7.525662,0.89838 10.182387,2.1204 -2.504967,-1.5041 -6.136823,-2.81754 -10.207533,-2.60629 z"
           id="path4880"
           inkscape:connector-curvature="0"
           inkscape:path-effect="#path-effect4888"
           inkscape:original-d="m 71.966666,143.80625 c 0,0 8.069791,-7.67292 19.84375,-1.45521" />
        <path
           style="fill:#ffffff;stroke:none;stroke-width:0.26458332px;stroke-linecap:butt;stroke-linejoin:miter;stroke-opacity:1"
           d="m 90.618286,144.17493 c -1.778186,1.18497 -3.476901,2.34415 -5.295914,3.34947 -0.56133,0.32935 -1.11758,0.63251 -1.708874,0.80487 0,0 -1e-6,0 -1e-6,0 -0.424666,0.12445 -0.869907,0.1648 -1.293703,0.0937 -1.155712,-0.1834 -2.257485,-0.92456 -3.3122,-1.44828 -2.482689,-1.24019 -4.899204,-2.13039 -7.040813,-2.77189 2.100554,0.75851 4.471926,1.74396 6.899364,3.04518 1.012163,0.54604 2.118306,1.32273 3.384937,1.56557 0.489607,0.0896 0.997154,0.0553 1.478113,-0.0784 0,0 10e-7,0 10e-7,0 0.650611,-0.18162 1.246002,-0.4909 1.819571,-0.82132 1.818858,-1.10942 3.500261,-2.39995 5.232558,-3.70641 0.364911,-0.27522 0.729537,-0.54913 1.095445,-0.81986 -3.189558,0.009 -6.168856,0.01 -9.155185,0.34099 -0.781707,0.10046 -1.55758,0.21457 -2.284094,0.52247 -0.132717,0.0565 -0.266205,0.0986 -0.399332,0.111 -0.31529,0.0326 -0.647898,0.005 -0.9789,-0.0147 -2.434478,-0.14926 -4.692172,-0.38649 -6.695679,-0.54139 1.822998,0.24326 4.403197,0.61302 6.674003,0.82318 0.326559,0.0309 0.672898,0.0687 1.027116,0.0442 0.174805,-0.0139 0.341256,-0.0594 0.496633,-0.1215 0.68081,-0.27155 1.424567,-0.35781 2.205655,-0.44487 2.947428,-0.38101 5.821494,-0.51071 8.977085,-0.67572 -0.37684,0.24596 -0.751609,0.49441 -1.125786,0.74375 z"
           id="path4890"
           inkscape:connector-curvature="0"
           inkscape:path-effect="#path-effect4898"
           inkscape:original-d="m 71.966666,144.20312 c 13.229166,4.36563 7.672916,7.67292 19.84375,-0.79375 -19.314582,0.52917 -4.365624,1.98438 -19.446874,0.39688" />
        <path
           style="fill:#ffffff;stroke:none;stroke-width:0.26458332px;stroke-linecap:butt;stroke-linejoin:miter;stroke-opacity:1"
           d="m 78.359398,122.15131 c 0.289047,-2.76347 0.246785,-5.44075 0.08993,-7.44923 -0.155314,1.98397 -0.294414,4.69666 -0.576984,7.3983 -0.170463,1.63336 -0.376461,3.12471 -0.635551,4.5902 -0.05993,0.33849 -0.122604,0.65443 -0.15283,0.9886 -0.02147,0.18538 -0.02896,0.3942 0.06069,0.58179 0.09048,0.16601 0.250166,0.25155 0.396802,0.29862 0.258338,0.087 0.534285,0.12516 0.775134,0.16577 -0.230284,-0.0771 -0.501898,-0.15565 -0.73285,-0.26899 -0.125962,-0.0646 -0.25188,-0.14901 -0.286625,-0.26344 -0.05533,-0.13745 -0.01981,-0.30126 0.01007,-0.48252 0.06112,-0.31731 0.148754,-0.61212 0.236918,-0.95289 0.371807,-1.43386 0.64444,-2.97621 0.815301,-4.60621 z"
           id="path4900"
           inkscape:connector-curvature="0"
           inkscape:path-effect="#path-effect4908"
           inkscape:original-d="m 78.448957,114.70208 c 0,14.02292 -2.778125,13.36146 -0.132291,14.02292" />
        <path
           style="fill:#ffffff;stroke:none;stroke-width:0.26458332px;stroke-linecap:butt;stroke-linejoin:miter;stroke-opacity:1"
           d="m 84.131262,121.24141 c -0.649824,-2.53882 -1.245982,-5.07614 -1.713194,-6.93626 0.166043,1.97151 0.567519,4.4332 1.238571,7.0577 0.328998,1.28546 0.701339,2.52737 1.100905,3.69439 0,0 0,0 0,0 0.224426,0.67105 0.468071,1.19805 0.466517,1.79994 0.0092,0.45128 -0.282901,0.88282 -0.557657,1.2061 0.323363,-0.27474 0.684097,-0.66717 0.748733,-1.19533 0.06872,-0.6478 -0.129379,-1.25698 -0.310478,-1.9165 0,0 0,0 0,0 -0.327149,-1.22226 -0.63731,-2.39569 -0.973397,-3.71004 z"
           id="path4910"
           inkscape:connector-curvature="0"
           inkscape:path-effect="#path-effect4918"
           inkscape:original-d="m 82.417707,114.30521 c 1.984375,11.90625 3.96875,12.03854 2.248959,13.75833" />
        <path
           style="fill:#ffffff;stroke:none;stroke-width:0.26458332px;stroke-linecap:butt;stroke-linejoin:miter;stroke-opacity:1"
           d="m 50.655316,102.56284 c 0.803809,3.56412 2.018708,6.70872 3.187054,9.09667 -0.888157,-2.55611 -1.903391,-5.62956 -2.709111,-9.20444 -0.208498,-0.92433 -0.393648,-1.84122 -0.556251,-2.75521 0,0 0,0 0,0 -0.28215,-1.594749 -0.484257,-2.977007 -0.433717,-4.384442 0.01888,-0.494843 0.06124,-0.947991 0.218179,-1.369672 0.112876,-0.296846 0.289962,-0.567828 0.570935,-0.674567 -0.2917,0.07212 -0.520636,0.332287 -0.665346,0.633944 -0.205332,0.420181 -0.296382,0.892272 -0.351906,1.393257 -0.160475,1.420738 -0.02824,2.872257 0.215026,4.474903 0,0 0,0 0,0 0.139671,0.925807 0.314982,1.856967 0.525137,2.789557 z"
           id="path4920"
           inkscape:connector-curvature="0"
           inkscape:path-effect="#path-effect4928"
           inkscape:original-d="M 53.842708,111.65937 C 50.535416,103.72187 48.815624,93.932289 50.932291,93.270831" />
        <path
           style="fill:#ffffff;stroke:none;stroke-width:0.26458332px;stroke-linecap:butt;stroke-linejoin:miter;stroke-opacity:1"
           d="m 54.238995,83.724485 c -1.558431,2.905111 -2.542386,5.594643 -3.042474,7.958746 0.84761,-2.360582 1.884478,-4.76458 3.474742,-7.726788 0.535802,-0.998518 1.084613,-1.967973 1.634082,-2.91161 0.216423,-0.371161 0.433374,-0.722793 0.622307,-1.108998 l 0,0 c -0.0055,-0.09251 0.0081,-0.222817 -0.01479,-0.394426 l 0,0 -10e-7,-10e-7 c -0.0057,-0.01683 -0.01688,-0.03709 -0.03846,-0.04235 0,0 0,0 0,0 -0.03239,-0.0079 -0.06505,0.0026 -0.09491,0.01076 -0.15235,0.04149 -0.278488,0.106727 -0.393618,0.163877 l 0,0 c -0.180046,0.153672 -0.351603,0.314076 -0.515105,0.468792 l 0,0 c -0.638393,0.603872 -1.256986,1.229512 -1.763726,1.751001 0.646615,-0.505446 1.181401,-0.945983 1.936522,-1.552981 l 0,0 c 0.174743,-0.140437 0.355334,-0.285675 0.538115,-0.420911 l 0,0 c 0.06984,-0.08992 0.130938,-0.184768 0.194693,-0.24747 0.01257,-0.01236 0.027,-0.02686 0.04028,-0.02264 0,0 0,0 0,0 0.0088,0.0028 0.0069,0.02075 -9.61e-4,0.03538 l 0,0 0,0 c -0.03475,-1.42e-4 -0.122067,0.02241 -0.207881,0.08347 l 0,0 c -0.200434,0.357069 -0.426863,0.685006 -0.663492,1.056213 -0.590004,0.92378 -1.1654,1.893926 -1.705324,2.899939 z"
           id="path4930"
           inkscape:connector-curvature="0"
           inkscape:path-effect="#path-effect4938"
           inkscape:original-d="m 51.196874,91.683331 c 2.778125,-9.789583 9.392709,-15.610417 2.910417,-9.789583" />
        <path
           style="fill:#ffffff;stroke:none;stroke-width:0.26458332px;stroke-linecap:butt;stroke-linejoin:miter;stroke-opacity:1"
           d="m 66.621053,73.285012 c -3.091509,2.499251 -6.603618,4.586513 -9.074353,6.094872 2.644184,-1.252173 6.211828,-3.153828 9.382271,-5.71377 0.0449,-0.03627 0.08971,-0.07265 0.134432,-0.109157 1.330313,-1.086695 2.505689,-2.289692 3.517249,-3.559466 0.256556,-0.319721 0.476189,-0.625134 0.754767,-0.862179 0.200559,-0.173439 0.453444,-0.283157 0.711537,-0.304003 0.419191,-0.03805 0.86512,0.06587 1.282542,0.158987 0.771674,0.174596 1.686829,0.430913 2.34123,0.600678 -0.666497,-0.250606 -1.486315,-0.562295 -2.287346,-0.804631 -0.409464,-0.125376 -0.868204,-0.261217 -1.352292,-0.250891 -0.324842,0.01039 -0.646762,0.127229 -0.912463,0.334069 -0.329332,0.258774 -0.582335,0.573484 -0.841527,0.876642 -1.043215,1.21181 -2.216268,2.366778 -3.523345,3.43116 -0.04416,0.03599 -0.0884,0.07188 -0.132702,0.107689 z"
           id="path4940"
           inkscape:connector-curvature="0"
           inkscape:path-effect="#path-effect4948"
           inkscape:original-d="M 57.546874,79.380206 C 75.670832,69.590623 67.733332,67.077081 75.670832,69.590623" />
        <path
           style="fill:#ffffff;stroke:none;stroke-width:0.26458332px;stroke-linecap:butt;stroke-linejoin:miter;stroke-opacity:1"
           d="m 85.493131,70.858437 c -0.212889,-0.07789 -0.427808,-0.150306 -0.644724,-0.216774 0,0 -10e-7,0 -10e-7,0 -2.712745,-0.827186 -5.440027,-0.839431 -7.457789,-0.654531 2.014224,0.103117 4.70533,0.295496 7.313428,1.119694 0,0 1e-6,0 1e-6,0 0.208415,0.06555 0.415351,0.136119 0.620934,0.211311 1.024702,0.374541 2.000193,0.85831 2.921927,1.379771 0.278354,0.160891 0.567101,0.347172 0.918324,0.440599 0,0 0,0 0,0 0.262154,0.06375 0.533331,-0.02983 0.6951,-0.244173 0.232016,-0.355325 0.286512,-0.763654 0.343441,-1.105359 0.135552,-0.76125 0.218513,-1.560704 0.284089,-2.198293 -0.162693,0.65065 -0.320374,1.379052 -0.527001,2.144057 -0.09591,0.34269 -0.170208,0.718416 -0.3714,0.964387 -0.06122,0.09497 -0.209261,0.125457 -0.323804,0.08302 -1e-6,0 -1e-6,0 -1e-6,0 -0.269673,-0.08159 -0.512031,-0.265891 -0.804085,-0.444713 -0.914136,-0.571906 -1.906423,-1.090174 -2.968439,-1.478999 z"
           id="path4950"
           inkscape:connector-curvature="0"
           inkscape:path-effect="#path-effect4958"
           inkscape:original-d="m 77.390624,69.987498 c 13.096875,-0.264584 11.773958,7.14375 13.096875,-0.396875" />
        <path
           style="fill:#ffffff;stroke:none;stroke-width:0.26458332px;stroke-linecap:butt;stroke-linejoin:miter;stroke-opacity:1"
           d="m 100.13917,80.672882 c -0.486728,-0.810534 -1.025004,-1.580625 -1.634158,-2.291417 -2.106522,-2.452278 -4.7285,-3.86562 -6.959053,-4.557853 2.144258,0.919719 4.614014,2.442304 6.604827,4.856126 0.577768,0.698853 1.092892,1.451889 1.568305,2.245165 0.482109,0.804177 0.916969,1.639039 1.324899,2.473775 0,0 0,10e-7 0,10e-7 0.20752,0.432286 0.3912,0.905704 0.73046,1.315446 0.0621,0.110183 0.21361,0.224351 0.44724,0.238655 0.24184,-0.05583 0.37154,-0.204288 0.4166,-0.326539 0.35459,-0.612088 0.47517,-1.312579 0.61677,-1.911062 0.35083,-1.451957 0.64128,-2.960738 0.85884,-4.128643 -0.41338,1.393171 -0.75231,2.652816 -1.16569,4.045987 -0.18232,0.603909 -0.32394,1.275188 -0.65409,1.783321 -0.0782,0.07926 -0.1084,0.16026 -0.10404,0.122564 0.0172,0.03076 -0.01,-0.03543 -0.0862,-0.09417 -0.27471,-0.339766 -0.4251,-0.783348 -0.64255,-1.244162 0,0 0,0 0,0 -0.39472,-0.85213 -0.82841,-1.704638 -1.32218,-2.527192 z"
           id="path4960"
           inkscape:connector-curvature="0"
           inkscape:path-effect="#path-effect4968"
           inkscape:original-d="m 91.545832,73.823956 c 12.567708,4.630208 9.128128,19.05 12.567708,4.7625" />
        <path
           style="fill:#ffffff;stroke:none;stroke-width:0.26458332px;stroke-linecap:butt;stroke-linejoin:miter;stroke-opacity:1"
           d="m 104.66046,104.56776 c -0.24161,0.53051 -0.44905,1.08845 -0.54723,1.53517 0.37071,-0.2932 0.73365,-0.76411 0.99302,-1.33192 0.1282,-0.28142 0.2239,-0.57113 0.28423,-0.85347 0,0 0,0 0,0 -0.026,-0.0703 -0.0489,-0.13411 -0.0553,-0.19648 -0.0332,-0.0638 -0.047,-0.13421 -0.0425,-0.13195 0,0 0,0 0,0 0.007,0.004 -0.002,0.0613 0.0128,0.11304 l 0,0 0,0 c 0.0468,0.10275 0.083,0.18986 0.13064,0.28436 0.0213,-0.0959 0.0414,-0.20259 0.0497,-0.3151 l 0,0 0,0 c 0.002,-0.0258 0.004,-0.0751 -0.0588,-0.11437 0,0 0,0 0,0 -0.0426,-0.0268 -0.0883,-5.9e-4 -0.14501,-0.0119 -0.0698,0.0767 -0.14762,0.1647 -0.22927,0.24572 0,0 0,0 0,0 -0.13618,0.24257 -0.26986,0.50872 -0.39232,0.77686 z"
           id="path4970"
           inkscape:connector-curvature="0"
           inkscape:path-effect="#path-effect4978"
           inkscape:original-d="m 104.11354,106.10312 c 1.32292,-2.11666 1.19063,-3.175 1.32292,-2.11666" />
        <path
           style="fill:#ffffff;stroke:none;stroke-width:0.26458332px;stroke-linecap:butt;stroke-linejoin:miter;stroke-opacity:1"
           d="m 108.46738,113.10649 c -0.0328,-0.40034 -0.0705,-0.7994 -0.11167,-1.19629 0,0 0,0 0,0 -0.37939,-2.68072 -0.80118,-5.189 -1.19909,-7.12998 0.12746,1.97598 0.38102,4.50244 0.72113,7.18504 0,0 0,0 0,0 0.0351,0.39522 0.0695,0.79138 0.10191,1.18837 0.1243,1.51755 0.21027,2.93375 0.21876,4.35356 3e-5,1.62205 0.0528,2.79691 -0.51332,3.94159 0.71,-1.04435 0.81362,-2.3395 0.88408,-3.93344 0.0708,-1.42545 0.0225,-2.88983 -0.1018,-4.40885 z"
           id="path4980"
           inkscape:connector-curvature="0"
           inkscape:path-effect="#path-effect4988"
           inkscape:original-d="m 107.15625,104.78021 c 0,0 2.38125,13.49375 0.52917,16.66875" />
        <path
           style="fill:#ffffff;stroke:none;stroke-width:0.26458332px;stroke-linecap:butt;stroke-linejoin:miter;stroke-opacity:1"
           d="m 70.712724,147.54389 c -0.260968,-2.25831 -0.691781,-4.38885 -1.126947,-5.98666 0.12311,1.63091 0.383659,3.81849 0.64023,6.04287 0.191627,1.65732 0.29132,2.55121 0.456334,4.05257 0,0 0,0 0,0 0.04625,0.46424 0.02368,0.91397 0.245101,1.31492 0.145709,0.23273 0.432279,0.23083 0.642318,0.23174 -0.206723,-0.0408 -0.485725,-0.0961 -0.536385,-0.28139 -0.149659,-0.39186 -0.05597,-0.7728 -0.06482,-1.28153 0,0 0,0 0,0 -0.0053,-1.28017 -0.09077,-2.66069 -0.255832,-4.09252 z"
           id="path4990"
           inkscape:connector-curvature="0"
           inkscape:path-effect="#path-effect4998"
           inkscape:original-d="m 69.585416,141.55729 c 1.984375,11.50937 0.661458,11.50937 1.984375,11.64167" />
        <path
           style="fill:#ffffff;stroke:none;stroke-width:0.26458332px;stroke-linecap:butt;stroke-linejoin:miter;stroke-opacity:1"
           d="m 94.370889,146.65287 c -0.0056,-0.0546 -0.01129,-0.10921 -0.01702,-0.16379 -0.169307,-1.61406 -0.401778,-3.17941 -0.65965,-4.58247 l 0,0 0,0 0,0 c -0.09744,-0.5302 -0.197369,-1.0301 -0.298859,-1.49687 l 0,0 c -0.03122,-0.14359 -0.06246,-0.28344 -0.09389,-0.42 l 0,0 c -0.0087,-0.0376 -0.0173,-0.0748 -0.02599,-0.11187 0,0 0,0 0,0 -0.0031,-0.0134 -0.0063,-0.027 -0.0095,-0.0404 0.0013,0.0197 0.0014,0.0216 0.0027,0.0414 0,0 0,0 0,0 -6.72e-4,-0.0105 0.0081,0.12506 0.0074,0.1146 l 0,0 c 0.0091,0.1394 0.01877,0.28307 0.02904,0.42919 l 0,0 c 0.03333,0.47425 0.07347,0.98562 0.119,1.52021 l 0,0 0,0 0,0 c 0.119377,1.40166 0.280847,3.00599 0.442588,4.59655 3.12e-4,0.003 0.01635,0.16038 0.01666,0.16345 0.169689,1.6552 0.316762,2.98141 0.404798,4.47113 0,0 0,0 0,0 0.03353,0.57689 0.0599,1.07299 0.01896,1.58265 -0.01404,0.1696 -0.03163,0.32819 -0.08296,0.47933 -0.03367,0.0934 -0.0753,0.18875 -0.164918,0.22721 0.09477,-0.0229 0.162708,-0.11586 0.208915,-0.20833 0.07688,-0.14754 0.121187,-0.31129 0.157882,-0.48041 0.111011,-0.50668 0.143714,-1.02824 0.160824,-1.60467 0,0 0,0 0,0 0.04379,-1.43971 -0.05274,-2.92474 -0.215983,-4.51691 z"
           id="path5000"
           inkscape:connector-curvature="0"
           inkscape:path-effect="#path-effect5008"
           inkscape:original-d="m 93.265624,139.8375 c 0,0 1.984375,13.22916 0.79375,13.62604" />
        <path
           style="fill:#ffffff;stroke:none;stroke-width:0.26458332px;stroke-linecap:butt;stroke-linejoin:miter;stroke-opacity:1"
           d="m 82.942022,155.72762 c -1.137364,-0.009 -2.272503,-0.14219 -3.371825,-0.36028 -2.930021,-1.1583 -5.651958,-2.18328 -7.867935,-2.96244 2.128695,0.99068 4.808606,2.16608 7.735966,3.3937 1.124271,0.25027 2.296017,0.40174 3.478558,0.41202 1.242942,0.0106 2.468628,-0.13503 3.641528,-0.46469 3.093523,-0.88203 5.299544,-3.00924 6.575317,-4.92801 -1.45267,1.78087 -3.72101,3.72425 -6.693587,4.49355 -1.127913,0.29661 -2.301694,0.42547 -3.498022,0.41615 z"
           id="path5018"
           inkscape:connector-curvature="0"
           inkscape:path-effect="#path-effect5026"
           inkscape:original-d="m 71.702082,152.40521 c 0,0 13.626042,8.99583 21.43125,-1.5875" />
        <path
           style="fill:#ffffff;stroke:none;stroke-width:0.26458332px;stroke-linecap:butt;stroke-linejoin:miter;stroke-opacity:1"
           d="m 76.752691,159.50975 c -0.253646,-0.19708 -0.50428,-0.39858 -0.75215,-0.60125 -1.23637,-1.01409 -2.360346,-2.07295 -3.362253,-3.05182 l 0,0 0,0 0,0 c -0.379164,-0.37048 -0.728193,-0.71787 -1.061988,-1.05535 l 0,0 c -0.101634,-0.10276 -0.199516,-0.20222 -0.296195,-0.30148 l 0,0 c 0,0 0,0 0,0 -0.02646,-0.0272 -0.05261,-0.0541 -0.07861,-0.081 0,0 0,0 0,0 -0.0094,-0.01 -0.01898,-0.0197 -0.02826,-0.0294 0.0077,0.011 0.01572,0.0223 0.02354,0.0333 0,0 0,0 0,0 0.02166,0.0306 0.04357,0.0611 0.06577,0.0919 0,0 0,0 0,1e-5 l 0,0 c 0.08094,0.11208 0.164724,0.22514 0.251807,0.34035 l 0,0 c 0.285082,0.37717 0.598208,0.76767 0.941312,1.17195 l 0,0 0,0 0,0 c 0.910007,1.0724 1.993605,2.20315 3.235864,3.25276 0.24742,0.20971 0.500321,0.41683 0.759314,0.61833 1.060326,0.8246 2.165426,1.50895 3.366441,1.92622 0,0 0,0 0,0 0.672983,0.23489 1.347826,0.35675 1.997702,0.29908 0.675161,-0.0608 1.255913,-0.34368 1.661289,-0.72198 -0.457758,0.31212 -1.042334,0.50405 -1.670761,0.49834 -0.611812,-0.004 -1.225073,-0.17149 -1.853981,-0.42985 0,0 0,0 0,0 -1.126843,-0.46465 -2.157746,-1.15077 -3.198839,-1.96006 z"
           id="path5028"
           inkscape:connector-curvature="0"
           inkscape:path-effect="#path-effect5036"
           inkscape:original-d="m 71.172916,154.38958 c 0,0 8.334375,10.18646 12.303125,7.01146" />
        <path
           style="fill:#ffffff;stroke:none;stroke-width:0.26458332px;stroke-linecap:butt;stroke-linejoin:miter;stroke-opacity:1"
           d="m 90.163505,157.81713 c -1.913069,1.46371 -3.934428,2.80171 -5.364738,3.84818 1.582081,-0.77644 3.716857,-1.96993 5.662336,-3.45937 1.060004,-0.81196 2.01279,-1.67015 2.842381,-2.57722 0,0 0,0 0,0 l 0,0 c 0.487861,-0.53288 0.894978,-1.04711 1.203981,-1.59884 l 0,0 c 0.07373,-0.13164 0.139581,-0.26276 0.193789,-0.39639 l 0,0 c 0,0 0,0 0,0 0.0032,-0.0355 0.0081,-0.0702 0.01508,-0.1041 l 0,0 c 0.0041,-0.0116 0.0018,-0.031 0.01332,-0.0324 0.0044,0.003 -1.27e-4,0.0106 -9.35e-4,0.016 0,0 0,1e-5 0,1e-5 -0.0022,0.0146 -0.0044,0.029 -0.0061,0.0436 -0.0067,0.0572 -0.0071,0.11443 -0.0022,0.17153 0.0051,-0.0573 0.0094,-0.11521 0.01381,-0.17462 0.0011,-0.015 0.0023,-0.0302 0.0031,-0.0453 0,0 0,0 0,0 2.87e-4,-0.006 0.0043,-0.0133 -5.19e-4,-0.0166 -0.01324,7.2e-4 -0.01252,0.0195 -0.01857,0.0305 l 0,0 c -0.02109,0.0287 -0.04539,0.0566 -0.07308,0.0834 0,0 0,0 0,0 l 0,0 c -0.0729,0.12079 -0.155047,0.23697 -0.244463,0.35453 l 0,0 c -0.37751,0.49646 -0.816917,0.9392 -1.340569,1.42785 l 0,0 c 0,0 0,0 0,0 -0.893765,0.83317 -1.841665,1.6225 -2.896659,2.42926 z"
           id="path5038"
           inkscape:connector-curvature="0"
           inkscape:path-effect="#path-effect5046"
           inkscape:original-d="m 84.798957,161.66562 c 10.715625,-6.48229 9.921875,-8.99583 9.921875,-7.9375" />
        <path
           style="fill:#ffffff;stroke:none;stroke-width:0.26458332px;stroke-linecap:butt;stroke-linejoin:miter;stroke-opacity:1"
           d="m 75.413706,137.78658 c -1.45e-4,8e-5 -0.05371,0.0306 -0.05385,0.0307 0,0 0,0 0,0 -1.948727,1.16747 -3.775888,2.36199 -5.11311,3.34283 1.495962,-0.71321 3.41042,-1.75602 5.359932,-2.91962 0,0 0,0 0,0 3.11e-4,-1.8e-4 0.0534,-0.0303 0.05371,-0.0305 1.349639,-0.7668 2.350651,-1.35624 3.580812,-1.99849 0,0 0,0 0,0 0.448448,-0.23341 0.830018,-0.43265 1.251318,-0.58059 0.134266,-0.0465 0.260362,-0.0877 0.392945,-0.095 0.07825,-0.002 0.16397,0.004 0.209011,0.0685 -0.03223,-0.0714 -0.123811,-0.10387 -0.207582,-0.11162 -0.139093,-0.0163 -0.281142,0.003 -0.423042,0.0303 -0.446248,0.0829 -0.875432,0.23883 -1.343204,0.42525 0,0 0,0 0,0 -1.22166,0.48563 -2.43078,1.11314 -3.706941,1.8383 z"
           id="path5048"
           inkscape:connector-curvature="0"
           inkscape:path-effect="#path-effect5056"
           inkscape:original-d="m 70.246874,141.16041 c 0,0 10.31875,-6.48229 10.847917,-5.55625" />
        <path
           style="fill:#ffffff;stroke:none;stroke-width:0.26458332px;stroke-linecap:butt;stroke-linejoin:miter;stroke-opacity:1"
           d="m 87.670766,136.78643 c -1.626219,-0.59181 -3.2084,-0.99003 -4.459208,-1.18262 1.113866,0.47635 2.730378,1.07427 4.29161,1.64301 0.8298,0.30194 1.815404,0.65733 2.572367,0.92479 0,0 0,0 0,0 0.440524,0.15718 0.819166,0.32273 1.253887,0.36117 0.229942,0.0191 0.42104,-0.11133 0.481324,-0.28262 -0.100839,0.15076 -0.291438,0.21013 -0.457887,0.15585 -0.405112,-0.11813 -0.697347,-0.32019 -1.148062,-0.54032 0,0 0,0 0,0 -0.781543,-0.38692 -1.636659,-0.75233 -2.534031,-1.07926 z"
           id="path5058"
           inkscape:connector-curvature="0"
           inkscape:path-effect="#path-effect5066"
           inkscape:original-d="m 83.211457,135.60416 c 7.408334,2.11667 8.202084,3.43959 8.598959,2.64584" />
      </g>
    </g>
  </g>
</svg>
