<?xml version="1.0" encoding="UTF-8" standalone="no"?>
<!-- Created with Inkscape (http://www.inkscape.org/) -->

<svg
   xmlns:dc="http://purl.org/dc/elements/1.1/"
   xmlns:cc="http://creativecommons.org/ns#"
   xmlns:rdf="http://www.w3.org/1999/02/22-rdf-syntax-ns#"
   xmlns:svg="http://www.w3.org/2000/svg"
   xmlns="http://www.w3.org/2000/svg"
   xmlns:sodipodi="http://sodipodi.sourceforge.net/DTD/sodipodi-0.dtd"
   xmlns:inkscape="http://www.inkscape.org/namespaces/inkscape"
   width="210mm"
   height="297mm"
   viewBox="0 0 210 297"
   version="1.1"
   id="svg8"
   sodipodi:docname="logo.svg"
   inkscape:version="0.92.4 (f8dce91, 2019-08-02)">
  <defs
     id="defs2" />
  <sodipodi:namedview
     id="base"
     pagecolor="#ffffff"
     bordercolor="#666666"
     borderopacity="1.0"
     inkscape:pageopacity="0.0"
     inkscape:pageshadow="2"
     inkscape:zoom="1.979899"
     inkscape:cx="370.48899"
     inkscape:cy="611.52304"
     inkscape:document-units="mm"
     inkscape:current-layer="layer1"
     showgrid="false"
     showguides="false"
     inkscape:guide-bbox="true"
     inkscape:object-nodes="true"
     inkscape:window-width="1440"
     inkscape:window-height="836"
     inkscape:window-x="0"
     inkscape:window-y="27"
     inkscape:window-maximized="1" />
  <metadata
     id="metadata5">
    <rdf:RDF>
      <cc:Work
         rdf:about="">
        <dc:format>image/svg+xml</dc:format>
        <dc:type
           rdf:resource="http://purl.org/dc/dcmitype/StillImage" />
        <dc:title></dc:title>
      </cc:Work>
    </rdf:RDF>
  </metadata>
  <g
     inkscape:label="Layer 1"
     inkscape:groupmode="layer"
     id="layer1">
    <g
       id="g1244"
       transform="translate(2.078869,-0.37797619)"
       inkscape:export-filename="/home/abdi/logo.png"
       inkscape:export-xdpi="96.57"
       inkscape:export-ydpi="96.57">
      <g
         id="g1191">
        <path
           id="path902"
           d="m 89.147038,118.57153 6.819638,10.67157 0.01453,-2.1e-4 -6.804365,10.57453 10.675193,-6.8197 -1.84e-4,-0.0109 10.57262,6.79895 -6.81964,-10.67156 -0.0109,1.8e-4 6.80074,-10.57446 -10.675196,6.8197 1.84e-4,0.0109 z"
           style="color:#000000;font-style:normal;font-variant:normal;font-weight:normal;font-stretch:normal;font-size:medium;line-height:normal;font-family:sans-serif;font-variant-ligatures:normal;font-variant-position:normal;font-variant-caps:normal;font-variant-numeric:normal;font-variant-alternates:normal;font-feature-settings:normal;text-indent:0;text-align:start;text-decoration:none;text-decoration-line:none;text-decoration-style:solid;text-decoration-color:#000000;letter-spacing:normal;word-spacing:normal;text-transform:none;writing-mode:lr-tb;direction:ltr;text-orientation:mixed;dominant-baseline:auto;baseline-shift:baseline;text-anchor:start;white-space:normal;shape-padding:0;clip-rule:nonzero;display:inline;overflow:visible;visibility:visible;opacity:1;isolation:auto;mix-blend-mode:normal;color-interpolation:sRGB;color-interpolation-filters:linearRGB;solid-color:#000000;solid-opacity:1;vector-effect:none;fill:#806600;fill-opacity:1;fill-rule:nonzero;stroke:none;stroke-width:1.0305506;stroke-linecap:butt;stroke-linejoin:miter;stroke-miterlimit:4;stroke-dasharray:none;stroke-dashoffset:0;stroke-opacity:1;color-rendering:auto;image-rendering:auto;shape-rendering:auto;text-rendering:auto;enable-background:accumulate"
           inkscape:connector-curvature="0" />
        <path
           inkscape:connector-curvature="0"
           style="color:#000000;font-style:normal;font-variant:normal;font-weight:normal;font-stretch:normal;font-size:medium;line-height:normal;font-family:sans-serif;font-variant-ligatures:normal;font-variant-position:normal;font-variant-caps:normal;font-variant-numeric:normal;font-variant-alternates:normal;font-feature-settings:normal;text-indent:0;text-align:start;text-decoration:none;text-decoration-line:none;text-decoration-style:solid;text-decoration-color:#000000;letter-spacing:normal;word-spacing:normal;text-transform:none;writing-mode:lr-tb;direction:ltr;text-orientation:mixed;dominant-baseline:auto;baseline-shift:baseline;text-anchor:start;white-space:normal;shape-padding:0;clip-rule:nonzero;display:inline;overflow:visible;visibility:visible;opacity:1;isolation:auto;mix-blend-mode:normal;color-interpolation:sRGB;color-interpolation-filters:linearRGB;solid-color:#000000;solid-opacity:1;vector-effect:none;fill:#806600;fill-opacity:1;fill-rule:nonzero;stroke:none;stroke-width:1.58357036;stroke-linecap:butt;stroke-linejoin:miter;stroke-miterlimit:4;stroke-dasharray:none;stroke-dashoffset:0;stroke-opacity:1;color-rendering:auto;image-rendering:auto;shape-rendering:auto;text-rendering:auto;enable-background:accumulate"
           d="m 100.14646,106.09661 -4.509965,18.9308 0.01574,0.0157 -18.950515,3.77276 18.934745,4.5139 0.01191,-0.0119 3.776698,18.94263 4.509967,-18.9308 -0.0119,-0.0119 18.94657,-3.7767 -18.93474,-4.5139 -0.0119,0.0119 z"
           id="path844" />
        <path
           inkscape:connector-curvature="0"
           style="opacity:1;fill:#ffdd55;stroke-width:0.58652967"
           d="m 100.07365,109.73694 -0.0526,3.26612 0.58456,-0.58456 z m 0.59693,3.00322 -0.65569,0.6557 -0.03401,2.16813 1.04231,-1.04231 z m 0.41755,2.10318 -1.113451,1.11345 -0.03403,2.16813 1.503151,-1.50316 z m 0.41754,2.10318 -1.571198,1.5712 -0.03401,2.16813 1.960908,-1.96091 z m 0.41754,2.10318 -2.028948,2.02895 -0.03401,2.16813 2.418658,-2.41866 z m 0.42064,2.10008 -2.489793,2.4898 -0.03403,2.16813 2.876403,-2.87641 z m 0.41754,2.10318 -2.947542,2.94755 -0.02783,1.86193 3.278492,-3.27848 z"
           id="rect835" />
        <path
           id="path877"
           d="m 99.498371,148.62225 0.05258,-3.26611 -0.58456,0.58456 z m -0.596933,-3.00321 0.655698,-0.6557 0.03401,-2.16813 -1.042311,1.04231 z m -0.417544,-2.10318 1.113449,-1.11345 0.03403,-2.16813 -1.503156,1.50316 z m -0.417541,-2.10318 1.571198,-1.5712 0.03401,-2.16813 -1.960905,1.96091 z m -0.417542,-2.10318 2.028949,-2.02895 0.03401,-2.16813 -2.418656,2.41866 z m -0.420636,-2.10009 2.489792,-2.48979 0.03403,-2.16813 -2.876408,2.87641 z m -0.417543,-2.10318 2.947543,-2.94754 0.02783,-1.86193 -3.278485,3.27848 z"
           style="opacity:1;fill:#ffdd55;stroke-width:0.58652967"
           inkscape:connector-curvature="0" />
        <path
           inkscape:connector-curvature="0"
           style="opacity:1;fill:#ffdd55;stroke-width:0.58652967"
           d="m 119.22867,129.46724 -3.26611,-0.0526 0.58456,0.58456 z m -3.00322,0.59693 -0.6557,-0.65569 -2.16813,-0.034 1.04232,1.04232 z m -2.10318,0.41755 -1.11345,-1.11345 -2.16813,-0.034 1.50316,1.50315 z m -2.10318,0.41754 -1.5712,-1.5712 -2.16813,-0.034 1.96091,1.9609 z m -2.10317,0.41754 -2.02896,-2.02895 -2.16812,-0.034 2.41865,2.41866 z m -2.10009,0.42064 -2.4898,-2.4898 -2.16813,-0.034 2.87641,2.87641 z m -2.10318,0.41754 -2.94755,-2.94754 -1.86193,-0.0278 3.27849,3.27849 z"
           id="path883" />
        <path
           id="path889"
           d="m 80.343356,128.89196 3.266113,0.0526 -0.58456,-0.58456 z m 3.003216,-0.59693 0.655697,0.65569 2.16813,0.034 -1.042311,-1.04231 z m 2.103179,-0.41755 1.113448,1.11345 2.16813,0.034 -1.503154,-1.50315 z m 2.103179,-0.41754 1.571199,1.5712 2.16813,0.034 -1.960905,-1.96091 z m 2.10318,-0.41754 2.02895,2.02895 2.168129,0.034 -2.418654,-2.41866 z m 2.100086,-0.42064 2.489792,2.4898 2.168133,0.034 -2.876407,-2.87641 z m 2.103179,-0.41754 2.947545,2.94754 1.86193,0.0278 -3.278483,-3.27849 z"
           style="opacity:1;fill:#ffdd55;stroke-width:0.58652967"
           inkscape:connector-curvature="0" />
      </g>
      <g
         id="text940"
         style="font-style:italic;font-variant:normal;font-weight:500;font-stretch:normal;font-size:10.58333302px;line-height:1.25;font-family:'URW Chancery L';-inkscape-font-specification:'URW Chancery L, Medium Italic';font-variant-ligatures:normal;font-variant-caps:normal;font-variant-numeric:normal;font-feature-settings:normal;text-align:start;letter-spacing:0px;word-spacing:0px;writing-mode:lr-tb;text-anchor:start;fill:#aa8800;fill-opacity:1;stroke:none;stroke-width:0.26458332"
         aria-label="Makeshiftdev-c">
        <path
           id="path948"
           style="fill:#aa8800;stroke-width:0.26458332"
           d="m 74.625387,147.6162 c 0.12278,0.14604 0.231522,0.2617 0.304017,0.3388 0.565459,0.60142 1.119773,0.83563 1.840158,0.78296 0.548115,-0.0505 0.827871,-0.1392 1.634121,-0.5486 0.388165,-0.20517 1.705026,-0.90581 2.360293,-1.27494 -2.529766,2.88693 -2.584201,2.95263 -3.186543,3.54801 l 0.648224,0.10234 c 0.83202,-0.27385 2.119629,-0.51119 5.127763,-0.94258 l -0.411757,0.24188 c -0.137406,0.0856 -0.426718,0.24141 -0.852974,0.46786 -2.085941,1.11867 -2.527619,1.35962 -2.58067,1.38045 -0.235338,0.10505 -0.433506,0.21874 -0.541454,0.32023 -0.107947,0.10149 -0.120729,0.2733 -0.02649,0.37354 0.03625,0.0386 0.08746,0.0776 0.153161,0.132 0.08792,0.0626 0.59274,0.44503 0.804819,0.6088 l 0.386988,0.3189 c 0.02946,0.0159 0.09516,0.0703 0.20483,0.15605 l 0.345002,-0.0193 c -0.130952,-0.12383 -0.254654,-0.23994 -0.298612,-0.27125 -0.130952,-0.12383 -0.254654,-0.23995 -0.312649,-0.30163 -0.231983,-0.24674 -0.246816,-0.49427 -0.05405,-0.6755 0.200473,-0.18849 0.253986,-0.22428 1.259787,-0.79225 1.653357,-0.92985 1.767632,-0.99372 2.429687,-1.34018 1.361741,-0.69926 1.482804,-0.74045 1.67129,-0.53997 0.06525,0.0694 0.151778,0.17688 0.22289,0.29886 0.01404,0.0304 0.08561,0.13741 0.157183,0.24443 l 0.729017,-0.0898 c -0.09194,-0.17503 -0.156722,-0.25939 -0.243715,-0.35191 -0.188487,-0.20048 -0.409659,-0.31211 -0.832561,-0.43745 -0.652707,-0.19981 -0.794596,-0.21167 -1.448814,-0.11952 l -2.428256,0.32198 -2.083715,0.31762 -0.458816,0.0682 c 1.077756,-1.20216 2.593294,-3.00476 3.038787,-3.61246 l -0.417496,-0.0578 c -0.236928,-0.32925 -0.366957,-0.483 -0.540945,-0.66805 -0.485714,-0.51661 -0.906772,-0.70179 -1.625313,-0.70896 -0.807839,-0.0249 -1.533295,0.19234 -1.926532,0.56206 -0.223605,0.21024 -0.380581,0.44498 -0.54263,0.84429 l 0.959618,0.20178 c 0.226959,-0.56202 0.361727,-0.80494 0.585332,-1.01518 0.501183,-0.47121 1.133986,-0.35438 1.76469,0.31643 0.166738,0.17735 0.275019,0.30796 0.475699,0.59866 -1.699159,0.95839 -3.532498,1.89767 -3.909725,1.99087 -0.407608,0.10723 -0.704503,0.0232 -1.01623,-0.30834 -0.123241,-0.13108 -0.123241,-0.13108 -0.497908,-0.60683 z"
           inkscape:connector-curvature="0" />
        <path
           id="path950"
           style="fill:#aa8800;stroke-width:0.26458332"
           d="m 85.542527,155.28437 c -0.953901,-0.0113 -1.138707,-0.0223 -1.226064,-0.082 -0.06115,-0.0418 -0.05703,-0.14158 0.01466,-0.24641 0.155337,-0.22713 1.022191,-1.04466 2.131287,-1.99143 0.18571,-0.0653 0.221105,-0.0796 0.468418,-0.14122 -0.353593,-0.38287 -0.635443,-0.62692 -1.011077,-0.88382 -0.358163,-0.24496 -0.548039,-0.32353 -0.870759,-0.3391 -0.439949,-0.0316 -0.992058,-0.0118 -1.189265,0.0329 -0.57415,0.14584 -1.747609,1.07423 -2.231545,1.78182 -0.286778,0.41931 -0.338192,0.79444 -0.1198,0.94381 0.192185,0.13144 0.599953,0.15388 2.229619,0.11449 -0.362185,0.34209 -0.591073,0.58303 -0.662768,0.68786 -0.07767,0.11356 -0.07305,0.21929 0.01431,0.27904 0.104828,0.0717 0.104828,0.0717 1.108383,0.10413 0.36685,0.007 0.663363,0.005 1.162606,-0.0126 z m -1.739303,-1.11261 c -0.772309,0.0231 -1.135946,-0.008 -1.293189,-0.11514 -0.13977,-0.0956 -0.119586,-0.31258 0.0716,-0.59212 0.298726,-0.43678 0.844765,-0.93522 1.403705,-1.28379 0.538255,-0.33707 0.855905,-0.38908 1.152917,-0.18595 0.157243,0.10755 0.398176,0.33643 0.664864,0.6214 -0.628778,0.54442 -0.827341,0.70352 -0.86595,0.74123 -0.201777,0.18254 -0.394818,0.37106 -0.60257,0.56234 -0.03861,0.0377 -0.13651,0.12461 -0.287729,0.25198 z"
           inkscape:connector-curvature="0" />
        <path
           id="path952"
           style="fill:#aa8800;stroke-width:0.26458332"
           d="m 84.917054,156.50682 c 0.123212,0.0128 0.236905,0.021 0.270088,0.0253 0.06637,0.009 0.175433,0.0264 0.298645,0.0392 0.03318,0.004 0.132731,0.0174 0.241799,0.0351 l 1.194484,-1.51406 0.283692,-0.0269 -0.06815,1.4965 c -0.06241,1.16984 -0.0045,1.68038 0.237769,2.17462 0.25671,0.51301 0.749784,0.99966 1.254308,1.24478 0.437888,0.21274 0.798275,0.27017 1.199476,0.17093 l 0.142606,-0.77789 c -0.554362,0.36605 -0.927545,0.43183 -1.327356,0.23759 -0.40933,-0.19887 -0.661415,-0.7214 -0.702953,-1.45932 -0.01464,-0.45423 -0.01464,-0.45423 0.01476,-3.27563 l 0.919912,-0.27081 c 0.533124,-0.1528 0.67973,-0.16394 0.860597,-0.0761 0.161829,0.0786 0.239061,0.21028 0.294248,0.48418 l 0.836976,-0.48759 c -0.111493,-0.23067 -0.231159,-0.34764 -0.440583,-0.44938 -0.247503,-0.12025 -0.460474,-0.11783 -0.875551,0.01 -0.443364,0.13758 -0.462133,0.15199 -0.598951,0.19142 l -1.759853,0.49811 1.069342,-1.28071 c 0.915103,-1.10855 1.167812,-1.3623 1.459137,-1.55021 0.30547,-0.19282 0.61772,-0.20584 0.941377,-0.0486 0.09519,0.0462 0.157203,0.0881 0.314676,0.19995 l 0.649017,-0.36713 c -0.114502,-0.0792 -0.176512,-0.12106 -0.262186,-0.16268 -0.342695,-0.1665 -0.608158,-0.20134 -1.009629,-0.12577 -0.817356,0.13238 -1.44922,0.34311 -1.707093,0.55905 -0.196941,0.16317 -0.683051,0.70358 -1.075045,1.19557 z"
           inkscape:connector-curvature="0" />
        <path
           id="path954"
           style="fill:#aa8800;stroke-width:0.26458332"
           d="m 92.615527,157.88681 c -0.969512,0.40412 -1.544838,0.52609 -1.926695,0.39991 -0.251221,-0.083 -0.405796,-0.32359 -0.389799,-0.6081 0.01293,-0.17407 0.03941,-0.28792 0.135715,-0.57934 0.545179,-0.13194 0.91638,-0.24334 1.655375,-0.48957 0.678788,-0.23269 0.999397,-0.49457 1.148829,-0.94676 0.116225,-0.35172 -0.03512,-0.6358 -0.386826,-0.75202 -0.221075,-0.0731 -0.39846,-0.0759 -0.672754,-0.0217 -0.454912,0.0949 -0.886233,0.25331 -1.176957,0.42475 -0.534609,0.33606 -1.241549,1.32853 -1.510526,2.14249 -0.195922,0.59288 -0.0073,1.06763 0.505219,1.23699 0.592884,0.19592 1.465921,0.0163 2.522118,-0.51525 z m -2.031087,-1.13933 c 0.526147,-1.01878 1.264013,-1.70008 1.696115,-1.55729 0.170831,0.0565 0.224916,0.26381 0.145219,0.50498 -0.166035,0.50245 -0.536976,0.71425 -1.841334,1.05231 z"
           inkscape:connector-curvature="0" />
        <path
           id="path956"
           style="fill:#aa8800;stroke-width:0.26458332"
           d="m 92.388022,158.3592 c -0.02992,0.091 -0.05767,0.17173 -0.07071,0.23388 -0.09347,0.44538 0.152041,0.82132 0.607778,0.91697 0.321088,0.0674 0.794728,0.0262 1.165303,-0.0907 0.685012,-0.22391 1.168754,-0.67389 1.277445,-1.19177 0.08043,-0.38324 0.02532,-0.48131 -0.478627,-0.96557 -0.304337,-0.30178 -0.408041,-0.52901 -0.351522,-0.79831 0.07391,-0.35216 0.439498,-0.59985 0.791658,-0.52594 0.238227,0.05 0.390395,0.20089 0.557397,0.53873 0.423897,-0.26789 0.423897,-0.26789 0.59985,-0.43643 -0.154982,-0.29206 -0.330039,-0.43694 -0.620054,-0.49781 -0.756111,-0.15868 -1.918855,0.53809 -2.062327,1.2217 -0.06739,0.32109 0.04616,0.60445 0.38106,0.96672 0.4418,0.47121 0.494739,0.57964 0.440393,0.83858 -0.07826,0.37288 -0.646011,0.70791 -1.04996,0.62313 -0.227869,-0.0478 -0.377864,-0.20908 -0.433616,-0.45868 -0.0399,-0.17058 -0.02801,-0.3303 0.03555,-0.68463 -0.131325,0.0589 -0.225056,0.0933 -0.273008,0.11572 -0.09373,0.0344 -0.197819,0.0666 -0.304081,0.10921 z"
           inkscape:connector-curvature="0" />
        <path
           id="path958"
           style="fill:#aa8800;stroke-width:0.26458332"
           d="m 95.86369,160.01946 0.772983,-0.24763 0.814046,-2.40997 c 0.111267,-0.0656 0.243638,-0.12964 0.265562,-0.13854 0.76421,-0.40755 1.225451,-0.60516 1.341516,-0.59612 0.07386,0.006 0.120863,0.0837 0.113465,0.17869 -0.0099,0.12662 -0.06769,0.3238 -0.259791,0.88207 -0.425726,1.24068 -0.600016,1.8428 -0.622209,2.12769 -0.0099,0.12661 0.02248,0.25652 0.122927,0.46603 0.603339,-0.25023 1.400848,-0.67641 2.014051,-1.05326 l 0.0977,-0.30023 c -0.937968,0.4577 -1.09144,0.52005 -1.228608,0.50937 -0.09496,-0.007 -0.150051,-0.11785 -0.1369,-0.28667 0.01644,-0.21103 0.103584,-0.51208 0.336384,-1.18395 0.434635,-1.21876 0.653594,-1.84924 0.656884,-1.89145 0.008,-0.10551 -0.0704,-0.18594 -0.207606,-0.19663 -0.221579,-0.0173 -0.980857,0.32698 -2.366356,1.07889 l 0.468888,-1.38593 c 0.333784,-1.01431 0.464778,-1.33318 0.622495,-1.58628 0.170734,-0.28393 0.402998,-0.40384 0.687885,-0.38165 0.137168,0.0107 0.220757,0.0278 0.625684,0.14428 l 0.50385,-0.60829 c -0.18664,-0.057 -0.27023,-0.0741 -0.4285,-0.0865 -0.580323,-0.0452 -0.898642,0.0892 -1.721497,0.70451 -0.586481,0.44262 -0.684865,0.61542 -1.120455,1.98272 z"
           inkscape:connector-curvature="0" />
        <path
           id="path960"
           style="fill:#aa8800;stroke-width:0.26458332"
           d="m 102.08226,154.84155 c 0.29623,-0.28664 0.31658,-0.3086 0.66568,-0.59725 -0.0683,-0.1245 -0.12438,-0.20709 -0.14674,-0.23801 -0.0683,-0.12449 -0.0793,-0.13467 -0.17152,-0.33238 -0.0228,-0.0415 -0.0455,-0.083 -0.0687,-0.13507 -0.0513,0.0443 -0.11311,0.089 -0.14363,0.12197 -0.0407,0.0439 -0.12288,0.11058 -0.22542,0.19922 -0.0513,0.0443 -0.12328,0.10001 -0.21605,0.16709 -0.0411,0.0333 -0.0822,0.0667 -0.12368,0.0894 0.0829,0.22985 0.1845,0.39544 0.43005,0.725 z m 0.88191,3.96983 c -0.98416,0.5776 -1.00491,0.58898 -1.14239,0.59422 -0.11634,0.004 -0.19479,-0.10909 -0.20164,-0.28888 -0.004,-0.10575 0.02,-0.3079 0.0746,-0.54298 0.45481,-2.24142 0.54447,-2.66848 0.54125,-2.75308 -0.002,-0.0635 -0.0569,-0.10374 -0.13094,-0.10093 -0.17978,0.007 -0.79046,0.3796 -1.63553,0.99427 l -0.01,0.29693 c 0.61108,-0.36218 0.66315,-0.38534 0.75833,-0.38897 0.0846,-0.003 0.12933,0.0586 0.13416,0.18554 0.005,0.13748 -0.0209,0.28675 -0.15655,0.8956 -0.4266,1.86966 -0.4266,1.86966 -0.41653,2.13406 0.01,0.25381 0.12186,0.419 0.26992,0.41336 0.17978,-0.007 0.46009,-0.1552 1.00691,-0.53611 0.19611,-0.13456 0.39222,-0.26911 0.58792,-0.41425 0.0932,-0.0565 0.18593,-0.12358 0.28928,-0.19106 z"
           inkscape:connector-curvature="0" />
        <path
           id="path962"
           style="fill:#aa8800;stroke-width:0.26458332"
           d="m 105.49643,156.31964 c 0.0315,-0.004 0.0944,-0.0127 0.21118,-0.0178 l 0.38479,-0.3936 c -0.54681,0.063 -0.54681,0.063 -0.66218,0.0786 -0.12587,0.017 -0.12587,0.017 -0.61741,0.0939 0.32268,-2.75596 0.43618,-3.10231 1.055,-3.18572 0.1783,-0.024 0.31748,-0.0214 0.71404,-0.0108 l 0.40613,-0.63141 c -0.21684,-0.0242 -0.30216,-0.0233 -0.51193,0.005 -0.62931,0.0848 -1.03872,0.37494 -1.64956,1.15141 -0.51102,0.64555 -0.60496,0.97858 -0.77934,2.7748 -0.1063,0.004 -0.15874,0.0107 -0.21119,0.0178 l -0.5111,0.0902 c -0.021,0.003 -0.0734,0.01 -0.15875,0.0107 -0.0573,0.0504 -0.11455,0.10087 -0.13411,0.11419 l -0.21378,0.15696 c -0.0391,0.0266 -0.11738,0.0799 -0.19422,0.14365 l 0.26221,-0.0353 c 0,0 0.73561,-0.0885 0.73561,-0.0885 0.0629,-0.008 0.1783,-0.024 0.38666,-0.0628 -0.0816,0.66242 -0.10635,0.95409 -0.18264,1.89345 -0.24054,2.96915 -0.41816,3.47365 -1.30969,3.59381 -0.14684,0.0198 -0.27411,0.0263 -0.56295,0.0225 -0.0837,0.17146 -0.10808,0.22814 -0.16878,0.33244 -0.0684,0.12668 -0.1472,0.25478 -0.21415,0.39195 0.23499,3.6e-4 0.35178,-0.005 0.5196,-0.0273 0.34612,-0.0466 0.61175,-0.13585 0.76684,-0.25286 0.28155,-0.20882 0.74719,-0.79485 0.9809,-1.20012 0.26577,-0.48434 0.52178,-1.43724 0.63437,-2.42421 0.22058,-1.77041 0.27799,-2.21599 0.30216,-2.43283 0.0958,-0.002 0.13776,-0.008 0.17972,-0.0135 z"
           inkscape:connector-curvature="0" />
        <path
           id="path964"
           style="fill:#aa8800;stroke-width:0.26458332"
           d="m 109.03517,157.41125 c -0.66541,0.6565 -0.95057,0.91292 -1.09434,0.94872 -0.13351,0.0333 -0.36432,-0.19285 -0.41802,-0.40851 -0.0358,-0.14378 -0.0581,-0.97802 -0.0597,-2.12283 0.14122,-0.0461 0.24391,-0.0717 0.29526,-0.0844 l 0.40823,-0.11257 c 0.0411,-0.0102 0.14122,-0.0461 0.30042,-0.10753 l 0.31609,-0.395 -1.31452,0.32734 -0.004,-1.76598 c -0.16955,0.15128 -0.24404,0.20255 -0.38018,0.3128 -0.0617,0.059 -0.13615,0.11025 -0.20807,0.17179 -0.036,0.0308 -0.0822,0.0641 -0.12844,0.0974 l 0.0321,1.35532 c -0.0899,0.0333 -0.15149,0.0486 -0.1823,0.0563 l -0.24647,0.0614 c -0.0205,0.005 -0.0719,0.0179 -0.15149,0.0486 -0.0951,0.10002 -0.10534,0.10257 -0.24412,0.28983 -0.0257,0.0282 -0.0668,0.0821 -0.12591,0.15132 l 0.24647,-0.0614 0.47241,-0.11764 0.22593,-0.0563 c 0.0234,2.41542 0.0234,2.41542 0.10272,2.73378 0.0818,0.32863 0.38701,0.63436 0.58213,0.58577 0.22594,-0.0563 0.81687,-0.66149 1.61863,-1.64641 z"
           inkscape:connector-curvature="0" />
        <path
           id="path966"
           style="fill:#aa8800;stroke-width:0.26458332"
           d="m 113.32394,155.63574 c -0.097,0.12916 -0.16838,0.23685 -0.206,0.28577 -0.39439,0.58738 -0.60814,0.85346 -0.69678,0.88834 -0.0788,0.031 -0.1805,-0.0541 -0.23863,-0.20181 -0.12788,-0.32499 -0.70347,-4.2156 -0.73692,-4.90758 -0.0159,-0.67615 0.11168,-0.98792 0.46622,-1.12743 0.12803,-0.0504 0.23426,-0.0694 0.48403,-0.0995 l 0.12767,-0.68714 c -0.15935,0.0286 -0.24201,0.0497 -0.33065,0.0846 -0.23635,0.093 -0.34888,0.18278 -0.52501,0.39994 -0.19196,0.23475 -0.42605,0.62257 -0.60104,0.98713 -0.30043,0.65276 -0.30285,0.73333 -0.15975,1.84846 0.006,0.0433 0.0265,0.18292 0.0452,0.34615 -0.19277,0.0304 -0.34825,0.0688 -0.42704,0.0998 -0.30529,0.12013 -0.94298,0.98522 -1.16641,1.57355 -0.1837,0.51585 -0.0805,2.07884 0.18693,2.75838 0.14726,0.37423 0.49536,0.68081 0.67263,0.61106 0.18711,-0.0736 0.51581,-0.51005 1.25536,-1.66542 0.0476,0.26558 0.13048,0.56281 0.20023,0.74008 0.0775,0.19697 0.19892,0.2743 0.3368,0.22004 0.15757,-0.062 0.80899,-0.92111 1.39388,-1.83366 z m -1.91477,0.79894 c -0.60459,0.9203 -0.77087,1.13358 -0.90875,1.18783 -0.13787,0.0543 -0.26494,-0.0663 -0.37732,-0.35194 -0.12789,-0.325 -0.21606,-0.72249 -0.26839,-1.20231 -0.1058,-1.10707 0.0845,-1.75062 0.58679,-1.94826 0.17727,-0.0697 0.33242,-0.0512 0.61674,0.0644 z"
           inkscape:connector-curvature="0" />
        <path
           id="path968"
           style="fill:#aa8800;stroke-width:0.26458332"
           d="m 116.06241,153.8894 c -0.35845,0.98731 -0.65793,1.49346 -1.00922,1.68924 -0.23112,0.1288 -0.51284,0.0798 -0.71151,-0.12445 -0.11941,-0.12731 -0.18533,-0.22385 -0.33474,-0.49194 0.27174,-0.49069 0.44088,-0.83939 0.75962,-1.55013 0.28797,-0.65725 0.31208,-1.07051 0.0802,-1.48652 -0.18033,-0.32356 -0.4919,-0.40435 -0.81547,-0.22402 -0.20338,0.11334 -0.32553,0.242 -0.47118,0.48068 -0.23794,0.39916 -0.41315,0.82394 -0.48363,1.15401 -0.1143,0.62103 0.13812,1.81311 0.55545,2.56192 0.30397,0.54543 0.78119,0.72776 1.25266,0.465 0.54543,-0.30398 1.00389,-1.06836 1.32719,-2.2057 z m -2.21322,0.72459 c -0.39412,-1.07676 -0.3965,-2.08106 0.001,-2.3026 0.15716,-0.0876 0.34643,0.0129 0.47009,0.23477 0.2576,0.46223 0.16256,0.87867 -0.47111,2.06783 z"
           inkscape:connector-curvature="0" />
        <path
           id="path970"
           style="fill:#aa8800;stroke-width:0.26458332"
           d="m 115.9444,152.90557 c -0.0524,-0.15893 -0.0984,-0.30937 -0.12156,-0.35813 -0.21151,-0.67382 -0.19002,-0.769 0.27465,-1.10186 0.3332,-0.26135 0.42025,-0.33937 0.59236,-0.53352 -0.0814,0.91836 -0.093,1.20407 -0.0664,1.4878 0.0573,0.59074 0.2733,1.18203 0.58304,1.59794 0.29079,0.39045 0.64604,0.49537 0.92614,0.28676 0.67056,-0.49939 1.02864,-1.86132 0.86839,-3.29908 -0.0862,-0.80675 -0.36271,-1.65647 -0.67246,-2.07239 -0.14539,-0.19522 -0.29963,-0.27829 -0.56204,-0.294 -0.15946,0.21113 -0.22971,0.32943 -0.39802,0.65272 0.27253,0.15332 0.40763,0.26384 0.57198,0.48453 0.38561,0.51777 0.63739,1.17479 0.71544,1.88202 0.0862,0.80675 -0.0772,1.56185 -0.3913,1.79574 -0.18674,0.13907 -0.50388,0.0322 -0.71881,-0.25642 -0.29078,-0.39045 -0.50265,-0.95844 -0.58737,-1.56833 -0.0515,-0.42351 -0.0546,-0.7643 0.003,-1.51976 -0.0105,-0.0318 -0.0294,-0.0572 -0.0358,-0.0657 -0.019,-0.0255 -0.0253,-0.034 -0.0865,-0.0807 l -0.0849,0.0632 c -0.0112,0.17988 -0.0856,0.27488 -0.35721,0.47716 l -0.20372,0.15171 c -0.54522,0.36646 -0.6301,0.42968 -0.69801,0.48025 -0.16127,0.12011 -0.22719,0.20878 -0.22754,0.31462 -0.009,0.21798 0.12048,0.67562 0.39954,1.4047 z"
           inkscape:connector-curvature="0" />
        <path
           id="path972"
           style="fill:#aa8800;stroke-width:0.26458332"
           d="m 119.8068,150.33762 c 0,0 0.65906,-0.6584 0.65906,-0.6584 0.0689,-0.0658 0.13014,-0.12423 0.34379,-0.29892 -0.0609,-0.27838 -0.0995,-0.54876 -0.1159,-0.81113 0,0 -0.70394,0.65735 -0.70394,0.65735 -0.10718,0.10231 -0.17607,0.16808 -0.34484,0.34381 -0.005,0.20948 0.0258,0.50213 0.0929,0.83306 z"
           inkscape:connector-curvature="0" />
        <path
           id="path974"
           style="fill:#aa8800;stroke-width:0.26458332"
           d="m 123.8669,146.57404 c -0.082,0.99809 -0.21813,1.6177 -0.43689,1.87623 -0.2461,0.29086 -0.61587,0.26911 -1.00368,-0.059 -0.3878,-0.32813 -0.82284,-0.8626 -1.07267,-1.3374 -0.29148,-0.5239 -0.33188,-0.91854 -0.13363,-1.15284 0.16407,-0.1939 0.40644,-0.16904 0.79611,0.0913 l 0.1218,-0.70102 c -0.0336,-0.0423 -0.0739,-0.0764 -0.082,-0.0833 -0.34741,-0.29395 -0.71595,-0.30078 -0.95521,-0.018 -0.12305,0.14542 -0.16593,0.26164 -0.21813,0.71656 -0.13299,0.92724 -0.12118,1.15905 0.0597,1.61708 0.24487,0.59537 0.78805,1.3461 1.28896,1.76995 0.46859,0.39649 0.92786,0.41078 1.24233,0.0391 0.32813,-0.3878 0.56553,-1.32375 0.63823,-2.52382 z"
           inkscape:connector-curvature="0" />
      </g>
      <g
         id="g1177">
        <path
           id="path902-8"
           d="m 108.43104,142.0466 1.23593,1.93401 0.003,-3e-5 -1.23316,1.91642 1.93467,-1.23593 -3e-5,-0.002 1.91608,1.23218 -1.23593,-1.93401 -0.002,3e-5 1.2325,-1.91642 -1.93467,1.23594 3e-5,0.002 z"
           style="color:#000000;font-style:normal;font-variant:normal;font-weight:normal;font-stretch:normal;font-size:medium;line-height:normal;font-family:sans-serif;font-variant-ligatures:normal;font-variant-position:normal;font-variant-caps:normal;font-variant-numeric:normal;font-variant-alternates:normal;font-feature-settings:normal;text-indent:0;text-align:start;text-decoration:none;text-decoration-line:none;text-decoration-style:solid;text-decoration-color:#000000;letter-spacing:normal;word-spacing:normal;text-transform:none;writing-mode:lr-tb;direction:ltr;text-orientation:mixed;dominant-baseline:auto;baseline-shift:baseline;text-anchor:start;white-space:normal;shape-padding:0;clip-rule:nonzero;display:inline;overflow:visible;visibility:visible;opacity:1;isolation:auto;mix-blend-mode:normal;color-interpolation:sRGB;color-interpolation-filters:linearRGB;solid-color:#000000;solid-opacity:1;vector-effect:none;fill:#800080;fill-opacity:1;fill-rule:nonzero;stroke:none;stroke-width:0.18676715;stroke-linecap:butt;stroke-linejoin:miter;stroke-miterlimit:4;stroke-dasharray:none;stroke-dashoffset:0;stroke-opacity:1;color-rendering:auto;image-rendering:auto;shape-rendering:auto;text-rendering:auto;enable-background:accumulate"
           inkscape:connector-curvature="0" />
        <path
           inkscape:connector-curvature="0"
           style="color:#000000;font-style:normal;font-variant:normal;font-weight:normal;font-stretch:normal;font-size:medium;line-height:normal;font-family:sans-serif;font-variant-ligatures:normal;font-variant-position:normal;font-variant-caps:normal;font-variant-numeric:normal;font-variant-alternates:normal;font-feature-settings:normal;text-indent:0;text-align:start;text-decoration:none;text-decoration-line:none;text-decoration-style:solid;text-decoration-color:#000000;letter-spacing:normal;word-spacing:normal;text-transform:none;writing-mode:lr-tb;direction:ltr;text-orientation:mixed;dominant-baseline:auto;baseline-shift:baseline;text-anchor:start;white-space:normal;shape-padding:0;clip-rule:nonzero;display:inline;overflow:visible;visibility:visible;opacity:1;isolation:auto;mix-blend-mode:normal;color-interpolation:sRGB;color-interpolation-filters:linearRGB;solid-color:#000000;solid-opacity:1;vector-effect:none;fill:#800080;fill-opacity:1;fill-rule:nonzero;stroke:none;stroke-width:0.28699118;stroke-linecap:butt;stroke-linejoin:miter;stroke-miterlimit:4;stroke-dasharray:none;stroke-dashoffset:0;stroke-opacity:1;color-rendering:auto;image-rendering:auto;shape-rendering:auto;text-rendering:auto;enable-background:accumulate"
           d="m 110.42447,139.78577 -0.81734,3.43083 0.003,0.003 -3.43441,0.68373 3.43155,0.81806 0.002,-0.002 0.68445,3.43298 0.81735,-3.43083 -0.002,-0.002 3.4337,-0.68445 -3.43156,-0.81806 -0.002,0.002 z"
           id="path844-9" />
        <path
           inkscape:connector-curvature="0"
           style="opacity:1;fill:#ff0000;stroke-width:0.10629704"
           d="m 110.41128,140.44551 -0.01,0.59191 0.10594,-0.10594 z m 0.10818,0.54427 -0.11883,0.11883 -0.006,0.39293 0.1889,-0.1889 z m 0.0757,0.38116 -0.20179,0.20179 -0.006,0.39293 0.27242,-0.27242 z m 0.0757,0.38116 -0.28475,0.28475 -0.006,0.39293 0.35537,-0.35538 z m 0.0757,0.38116 -0.3677,0.36771 -0.006,0.39293 0.43834,-0.43834 z m 0.0762,0.3806 -0.45123,0.45123 -0.006,0.39293 0.52129,-0.5213 z m 0.0757,0.38116 -0.53419,0.53418 -0.005,0.33744 0.59416,-0.59416 z"
           id="rect835-0" />
        <path
           id="path877-6"
           d="m 110.30702,147.49271 0.01,-0.59192 -0.10594,0.10594 z m -0.10818,-0.54428 0.11883,-0.11883 0.006,-0.39293 -0.1889,0.1889 z m -0.0757,-0.38116 0.20179,-0.20179 0.006,-0.39293 -0.27242,0.27242 z m -0.0757,-0.38116 0.28475,-0.28475 0.006,-0.39293 -0.35538,0.35538 z m -0.0757,-0.38116 0.36771,-0.3677 0.006,-0.39294 -0.43833,0.43834 z m -0.0762,-0.3806 0.45123,-0.45122 0.006,-0.39293 -0.52129,0.52129 z m -0.0757,-0.38116 0.53418,-0.53418 0.005,-0.33744 -0.59416,0.59416 z"
           style="opacity:1;fill:#ff0000;stroke-width:0.10629704"
           inkscape:connector-curvature="0" />
        <path
           inkscape:connector-curvature="0"
           style="opacity:1;fill:#ff0000;stroke-width:0.10629704"
           d="m 113.88275,144.02124 -0.59192,-0.01 0.10594,0.10594 z m -0.54428,0.10818 -0.11883,-0.11883 -0.39293,-0.006 0.1889,0.1889 z m -0.38116,0.0757 -0.20179,-0.20179 -0.39293,-0.006 0.27242,0.27242 z m -0.38116,0.0757 -0.28474,-0.28475 -0.39294,-0.006 0.35538,0.35537 z m -0.38116,0.0757 -0.3677,-0.3677 -0.39293,-0.006 0.43833,0.43834 z m -0.3806,0.0762 -0.45122,-0.45122 -0.39293,-0.006 0.52129,0.52129 z m -0.38116,0.0757 -0.53418,-0.53419 -0.33744,-0.005 0.59416,0.59416 z"
           id="path883-8" />
        <path
           id="path889-7"
           d="m 106.83555,143.91698 0.59192,0.01 -0.10594,-0.10594 z m 0.54427,-0.10818 0.11883,0.11883 0.39293,0.006 -0.18889,-0.1889 z m 0.38116,-0.0757 0.20179,0.20179 0.39293,0.006 -0.27242,-0.27242 z m 0.38116,-0.0757 0.28475,0.28475 0.39293,0.006 -0.35537,-0.35537 z m 0.38116,-0.0757 0.36771,0.36771 0.39293,0.006 -0.43833,-0.43833 z m 0.3806,-0.0762 0.45123,0.45123 0.39293,0.006 -0.52129,-0.52129 z m 0.38116,-0.0757 0.53419,0.53418 0.33743,0.005 -0.59416,-0.59416 z"
           style="opacity:1;fill:#ff0000;stroke-width:0.10629704"
           inkscape:connector-curvature="0" />
      </g>
      <g
         id="g1157">
        <path
           id="path902-0"
           d="m 87.183411,142.07825 1.235926,1.93401 0.0026,-3e-5 -1.233158,1.91642 1.93467,-1.23593 -3.3e-5,-0.002 1.91608,1.23218 -1.235926,-1.93401 -0.002,3e-5 1.2325,-1.91642 -1.93467,1.23594 3.4e-5,0.002 z"
           style="color:#000000;font-style:normal;font-variant:normal;font-weight:normal;font-stretch:normal;font-size:medium;line-height:normal;font-family:sans-serif;font-variant-ligatures:normal;font-variant-position:normal;font-variant-caps:normal;font-variant-numeric:normal;font-variant-alternates:normal;font-feature-settings:normal;text-indent:0;text-align:start;text-decoration:none;text-decoration-line:none;text-decoration-style:solid;text-decoration-color:#000000;letter-spacing:normal;word-spacing:normal;text-transform:none;writing-mode:lr-tb;direction:ltr;text-orientation:mixed;dominant-baseline:auto;baseline-shift:baseline;text-anchor:start;white-space:normal;shape-padding:0;clip-rule:nonzero;display:inline;overflow:visible;visibility:visible;opacity:1;isolation:auto;mix-blend-mode:normal;color-interpolation:sRGB;color-interpolation-filters:linearRGB;solid-color:#000000;solid-opacity:1;vector-effect:none;fill:#800080;fill-opacity:1;fill-rule:nonzero;stroke:none;stroke-width:0.18676715;stroke-linecap:butt;stroke-linejoin:miter;stroke-miterlimit:4;stroke-dasharray:none;stroke-dashoffset:0;stroke-opacity:1;color-rendering:auto;image-rendering:auto;shape-rendering:auto;text-rendering:auto;enable-background:accumulate"
           inkscape:connector-curvature="0" />
        <path
           inkscape:connector-curvature="0"
           style="color:#000000;font-style:normal;font-variant:normal;font-weight:normal;font-stretch:normal;font-size:medium;line-height:normal;font-family:sans-serif;font-variant-ligatures:normal;font-variant-position:normal;font-variant-caps:normal;font-variant-numeric:normal;font-variant-alternates:normal;font-feature-settings:normal;text-indent:0;text-align:start;text-decoration:none;text-decoration-line:none;text-decoration-style:solid;text-decoration-color:#000000;letter-spacing:normal;word-spacing:normal;text-transform:none;writing-mode:lr-tb;direction:ltr;text-orientation:mixed;dominant-baseline:auto;baseline-shift:baseline;text-anchor:start;white-space:normal;shape-padding:0;clip-rule:nonzero;display:inline;overflow:visible;visibility:visible;opacity:1;isolation:auto;mix-blend-mode:normal;color-interpolation:sRGB;color-interpolation-filters:linearRGB;solid-color:#000000;solid-opacity:1;vector-effect:none;fill:#800080;fill-opacity:1;fill-rule:nonzero;stroke:none;stroke-width:0.28699118;stroke-linecap:butt;stroke-linejoin:miter;stroke-miterlimit:4;stroke-dasharray:none;stroke-dashoffset:0;stroke-opacity:1;color-rendering:auto;image-rendering:auto;shape-rendering:auto;text-rendering:auto;enable-background:accumulate"
           d="m 89.176841,139.81742 -0.817342,3.43083 0.0029,0.003 -3.434411,0.68373 3.431553,0.81806 0.0022,-0.002 0.684453,3.43298 0.817343,-3.43083 -0.0022,-0.002 3.433697,-0.68445 -3.431553,-0.81806 -0.0022,0.002 z"
           id="path844-3" />
        <path
           inkscape:connector-curvature="0"
           style="opacity:1;fill:#ff0000;stroke-width:0.10629704"
           d="m 89.163647,140.47716 -0.0095,0.59191 0.105939,-0.10594 z m 0.108182,0.54427 -0.118832,0.11883 -0.0062,0.39293 0.188898,-0.1889 z m 0.07567,0.38116 -0.201791,0.20179 -0.0062,0.39293 0.272418,-0.27242 z m 0.07567,0.38116 -0.284749,0.28475 -0.0062,0.39293 0.355376,-0.35538 z m 0.07567,0.38116 -0.367707,0.36771 -0.0062,0.39293 0.438334,-0.43834 z m 0.07623,0.3806 -0.451226,0.45123 -0.0062,0.39293 0.521292,-0.5213 z m 0.07567,0.38116 -0.534185,0.53418 -0.005,0.33744 0.594161,-0.59416 z"
           id="rect835-3" />
        <path
           id="path877-3"
           d="m 89.059388,147.52436 0.0095,-0.59192 -0.10594,0.10594 z m -0.108182,-0.54428 0.118832,-0.11883 0.0062,-0.39293 -0.188899,0.1889 z m -0.07567,-0.38116 0.201791,-0.20179 0.0062,-0.39293 -0.272417,0.27242 z m -0.07567,-0.38116 0.284749,-0.28475 0.0062,-0.39293 -0.355376,0.35538 z m -0.07567,-0.38116 0.367707,-0.3677 0.0062,-0.39294 -0.438334,0.43834 z m -0.07623,-0.3806 0.451226,-0.45122 0.0062,-0.39293 -0.521293,0.52129 z m -0.07567,-0.38116 0.534185,-0.53418 0.005,-0.33744 -0.594161,0.59416 z"
           style="opacity:1;fill:#ff0000;stroke-width:0.10629704"
           inkscape:connector-curvature="0" />
        <path
           inkscape:connector-curvature="0"
           style="opacity:1;fill:#ff0000;stroke-width:0.10629704"
           d="m 92.635119,144.05289 -0.591919,-0.01 0.10594,0.10594 z m -0.544274,0.10818 -0.118833,-0.11883 -0.392931,-0.006 0.188899,0.1889 z m -0.38116,0.0757 -0.201791,-0.20179 -0.392931,-0.006 0.272417,0.27242 z m -0.38116,0.0757 -0.28475,-0.28475 -0.392931,-0.006 0.355376,0.35537 z m -0.381161,0.0757 -0.367707,-0.3677 -0.392931,-0.006 0.438334,0.43834 z m -0.380599,0.0762 -0.451227,-0.45122 -0.392931,-0.006 0.521293,0.52129 z m -0.381161,0.0757 -0.534184,-0.53419 -0.337439,-0.005 0.594161,0.59416 z"
           id="path883-7" />
        <path
           id="path889-3"
           d="m 85.587916,143.94863 0.591919,0.01 -0.10594,-0.10594 z m 0.544274,-0.10818 0.118832,0.11883 0.392932,0.006 -0.188899,-0.1889 z m 0.38116,-0.0757 0.201791,0.20179 0.392931,0.006 -0.272417,-0.27242 z m 0.38116,-0.0757 0.28475,0.28475 0.392931,0.006 -0.355376,-0.35537 z m 0.381161,-0.0757 0.367707,0.36771 0.392931,0.006 -0.438334,-0.43833 z m 0.380599,-0.0762 0.451226,0.45123 0.392932,0.006 -0.521292,-0.52129 z m 0.38116,-0.0757 0.534185,0.53418 0.337439,0.005 -0.594161,-0.59416 z"
           style="opacity:1;fill:#ff0000;stroke-width:0.10629704"
           inkscape:connector-curvature="0" />
      </g>
      <g
         id="g1129">
        <path
           inkscape:connector-curvature="0"
           style="color:#000000;font-style:normal;font-variant:normal;font-weight:normal;font-stretch:normal;font-size:medium;line-height:normal;font-family:sans-serif;font-variant-ligatures:normal;font-variant-position:normal;font-variant-caps:normal;font-variant-numeric:normal;font-variant-alternates:normal;font-feature-settings:normal;text-indent:0;text-align:start;text-decoration:none;text-decoration-line:none;text-decoration-style:solid;text-decoration-color:#000000;letter-spacing:normal;word-spacing:normal;text-transform:none;writing-mode:lr-tb;direction:ltr;text-orientation:mixed;dominant-baseline:auto;baseline-shift:baseline;text-anchor:start;white-space:normal;shape-padding:0;clip-rule:nonzero;display:inline;overflow:visible;visibility:visible;opacity:1;isolation:auto;mix-blend-mode:normal;color-interpolation:sRGB;color-interpolation-filters:linearRGB;solid-color:#000000;solid-opacity:1;vector-effect:none;fill:#800080;fill-opacity:1;fill-rule:nonzero;stroke:none;stroke-width:0.28699118;stroke-linecap:butt;stroke-linejoin:miter;stroke-miterlimit:4;stroke-dasharray:none;stroke-dashoffset:0;stroke-opacity:1;color-rendering:auto;image-rendering:auto;shape-rendering:auto;text-rendering:auto;enable-background:accumulate"
           d="m 89.277774,110.20523 -0.817342,3.43083 0.0029,0.003 -3.434411,0.68373 3.431553,0.81806 0.0022,-0.002 0.684453,3.43298 0.817343,-3.43083 -0.0022,-0.002 3.433697,-0.68445 -3.431553,-0.81806 -0.0022,0.002 z"
           id="path844-5" />
        <g
           id="g1120">
          <path
             inkscape:connector-curvature="0"
             style="opacity:1;fill:#ff0000;stroke-width:0.10629704"
             d="m 89.160321,117.91217 0.0095,-0.59192 -0.10594,0.10594 z m -0.108182,-0.54428 0.118832,-0.11883 0.0062,-0.39293 -0.188899,0.1889 z m -0.07567,-0.38116 0.201791,-0.20179 0.0062,-0.39293 -0.272417,0.27242 z m -0.07567,-0.38116 0.284749,-0.28475 0.0062,-0.39293 -0.355376,0.35538 z m -0.07567,-0.38116 0.367707,-0.3677 0.0062,-0.39294 -0.438334,0.43834 z m -0.07623,-0.3806 0.451226,-0.45122 0.0062,-0.39293 -0.521293,0.52129 z m -0.07567,-0.38116 0.534185,-0.53418 0.005,-0.33744 -0.594161,0.59416 z"
             id="path877-65" />
          <path
             inkscape:connector-curvature="0"
             style="color:#000000;font-style:normal;font-variant:normal;font-weight:normal;font-stretch:normal;font-size:medium;line-height:normal;font-family:sans-serif;font-variant-ligatures:normal;font-variant-position:normal;font-variant-caps:normal;font-variant-numeric:normal;font-variant-alternates:normal;font-feature-settings:normal;text-indent:0;text-align:start;text-decoration:none;text-decoration-line:none;text-decoration-style:solid;text-decoration-color:#000000;letter-spacing:normal;word-spacing:normal;text-transform:none;writing-mode:lr-tb;direction:ltr;text-orientation:mixed;dominant-baseline:auto;baseline-shift:baseline;text-anchor:start;white-space:normal;shape-padding:0;clip-rule:nonzero;display:inline;overflow:visible;visibility:visible;opacity:1;isolation:auto;mix-blend-mode:normal;color-interpolation:sRGB;color-interpolation-filters:linearRGB;solid-color:#000000;solid-opacity:1;vector-effect:none;fill:#800080;fill-opacity:1;fill-rule:nonzero;stroke:none;stroke-width:0.18676715;stroke-linecap:butt;stroke-linejoin:miter;stroke-miterlimit:4;stroke-dasharray:none;stroke-dashoffset:0;stroke-opacity:1;color-rendering:auto;image-rendering:auto;shape-rendering:auto;text-rendering:auto;enable-background:accumulate"
             d="m 87.284344,112.46606 1.235926,1.93401 0.0026,-3e-5 -1.233158,1.91642 1.93467,-1.23593 -3.3e-5,-0.002 1.91608,1.23218 -1.235926,-1.93401 -0.002,3e-5 1.2325,-1.91642 -1.93467,1.23594 3.4e-5,0.002 z"
             id="path902-6" />
          <path
             id="rect835-2"
             d="m 89.26458,110.86497 -0.0095,0.59191 0.105939,-0.10594 z m 0.108182,0.54427 -0.118832,0.11883 -0.0062,0.39293 0.188898,-0.1889 z m 0.07567,0.38116 -0.201791,0.20179 -0.0062,0.39293 0.272418,-0.27242 z m 0.07567,0.38116 -0.284749,0.28475 -0.0062,0.39293 0.355376,-0.35538 z m 0.07567,0.38116 -0.367707,0.36771 -0.0062,0.39293 0.438334,-0.43834 z m 0.07623,0.3806 -0.451226,0.45123 -0.0062,0.39293 0.521292,-0.5213 z m 0.07567,0.38116 -0.534185,0.53418 -0.005,0.33744 0.594161,-0.59416 z"
             style="opacity:1;fill:#ff0000;stroke-width:0.10629704"
             inkscape:connector-curvature="0" />
          <path
             id="path883-87"
             d="m 92.736052,114.4407 -0.591919,-0.01 0.10594,0.10594 z m -0.544274,0.10818 -0.118833,-0.11883 -0.392931,-0.006 0.188899,0.1889 z m -0.38116,0.0757 -0.201791,-0.20179 -0.392931,-0.006 0.272417,0.27242 z m -0.38116,0.0757 -0.28475,-0.28475 -0.392931,-0.006 0.355376,0.35537 z m -0.381161,0.0757 -0.367707,-0.3677 -0.392931,-0.006 0.438334,0.43834 z m -0.380599,0.0762 -0.451227,-0.45122 -0.392931,-0.006 0.521293,0.52129 z m -0.381161,0.0757 -0.534184,-0.53419 -0.337439,-0.005 0.594161,0.59416 z"
             style="opacity:1;fill:#ff0000;stroke-width:0.10629704"
             inkscape:connector-curvature="0" />
          <path
             inkscape:connector-curvature="0"
             style="opacity:1;fill:#ff0000;stroke-width:0.10629704"
             d="m 85.688849,114.33644 0.591919,0.01 -0.10594,-0.10594 z m 0.544274,-0.10818 0.118832,0.11883 0.392932,0.006 -0.188899,-0.1889 z m 0.38116,-0.0757 0.201791,0.20179 0.392931,0.006 -0.272417,-0.27242 z m 0.38116,-0.0757 0.28475,0.28475 0.392931,0.006 -0.355376,-0.35537 z m 0.381161,-0.0757 0.367707,0.36771 0.392931,0.006 -0.438334,-0.43833 z m 0.380599,-0.0762 0.451226,0.45123 0.392932,0.006 -0.521292,-0.52129 z m 0.38116,-0.0757 0.534185,0.53418 0.337439,0.005 -0.594161,-0.59416 z"
             id="path889-9" />
        </g>
      </g>
      <g
         id="g1143">
        <path
           id="path902-1"
           d="m 108.53198,112.43446 1.23593,1.93401 0.003,-3e-5 -1.23316,1.91642 1.93467,-1.23593 -3e-5,-0.002 1.91608,1.23218 -1.23593,-1.93401 -0.002,3e-5 1.2325,-1.91642 -1.93467,1.23594 3e-5,0.002 z"
           style="color:#000000;font-style:normal;font-variant:normal;font-weight:normal;font-stretch:normal;font-size:medium;line-height:normal;font-family:sans-serif;font-variant-ligatures:normal;font-variant-position:normal;font-variant-caps:normal;font-variant-numeric:normal;font-variant-alternates:normal;font-feature-settings:normal;text-indent:0;text-align:start;text-decoration:none;text-decoration-line:none;text-decoration-style:solid;text-decoration-color:#000000;letter-spacing:normal;word-spacing:normal;text-transform:none;writing-mode:lr-tb;direction:ltr;text-orientation:mixed;dominant-baseline:auto;baseline-shift:baseline;text-anchor:start;white-space:normal;shape-padding:0;clip-rule:nonzero;display:inline;overflow:visible;visibility:visible;opacity:1;isolation:auto;mix-blend-mode:normal;color-interpolation:sRGB;color-interpolation-filters:linearRGB;solid-color:#000000;solid-opacity:1;vector-effect:none;fill:#800080;fill-opacity:1;fill-rule:nonzero;stroke:none;stroke-width:0.18676715;stroke-linecap:butt;stroke-linejoin:miter;stroke-miterlimit:4;stroke-dasharray:none;stroke-dashoffset:0;stroke-opacity:1;color-rendering:auto;image-rendering:auto;shape-rendering:auto;text-rendering:auto;enable-background:accumulate"
           inkscape:connector-curvature="0" />
        <path
           inkscape:connector-curvature="0"
           style="color:#000000;font-style:normal;font-variant:normal;font-weight:normal;font-stretch:normal;font-size:medium;line-height:normal;font-family:sans-serif;font-variant-ligatures:normal;font-variant-position:normal;font-variant-caps:normal;font-variant-numeric:normal;font-variant-alternates:normal;font-feature-settings:normal;text-indent:0;text-align:start;text-decoration:none;text-decoration-line:none;text-decoration-style:solid;text-decoration-color:#000000;letter-spacing:normal;word-spacing:normal;text-transform:none;writing-mode:lr-tb;direction:ltr;text-orientation:mixed;dominant-baseline:auto;baseline-shift:baseline;text-anchor:start;white-space:normal;shape-padding:0;clip-rule:nonzero;display:inline;overflow:visible;visibility:visible;opacity:1;isolation:auto;mix-blend-mode:normal;color-interpolation:sRGB;color-interpolation-filters:linearRGB;solid-color:#000000;solid-opacity:1;vector-effect:none;fill:#800080;fill-opacity:1;fill-rule:nonzero;stroke:none;stroke-width:0.28699118;stroke-linecap:butt;stroke-linejoin:miter;stroke-miterlimit:4;stroke-dasharray:none;stroke-dashoffset:0;stroke-opacity:1;color-rendering:auto;image-rendering:auto;shape-rendering:auto;text-rendering:auto;enable-background:accumulate"
           d="m 110.52541,110.17363 -0.81734,3.43083 0.003,0.003 -3.43441,0.68373 3.43155,0.81806 0.002,-0.002 0.68445,3.43298 0.81735,-3.43083 -0.002,-0.002 3.4337,-0.68445 -3.43156,-0.81806 -0.002,0.002 z"
           id="path844-7" />
        <path
           inkscape:connector-curvature="0"
           style="opacity:1;fill:#ff0000;stroke-width:0.10629704"
           d="m 110.51222,110.83337 -0.01,0.59191 0.10594,-0.10594 z m 0.10818,0.54427 -0.11883,0.11883 -0.006,0.39293 0.1889,-0.1889 z m 0.0757,0.38116 -0.20179,0.20179 -0.006,0.39293 0.27242,-0.27242 z m 0.0757,0.38116 -0.28475,0.28475 -0.006,0.39293 0.35537,-0.35538 z m 0.0757,0.38116 -0.3677,0.36771 -0.006,0.39293 0.43834,-0.43834 z m 0.0762,0.3806 -0.45123,0.45123 -0.006,0.39293 0.52129,-0.5213 z m 0.0757,0.38116 -0.53419,0.53418 -0.005,0.33744 0.59416,-0.59416 z"
           id="rect835-8" />
        <path
           id="path877-9"
           d="m 110.40796,117.88057 0.01,-0.59192 -0.10594,0.10594 z m -0.10818,-0.54428 0.11883,-0.11883 0.006,-0.39293 -0.1889,0.1889 z m -0.0757,-0.38116 0.20179,-0.20179 0.006,-0.39293 -0.27242,0.27242 z m -0.0757,-0.38116 0.28475,-0.28475 0.006,-0.39293 -0.35538,0.35538 z m -0.0757,-0.38116 0.36771,-0.3677 0.006,-0.39294 -0.43833,0.43834 z m -0.0762,-0.3806 0.45123,-0.45122 0.006,-0.39293 -0.52129,0.52129 z m -0.0757,-0.38116 0.53418,-0.53418 0.005,-0.33744 -0.59416,0.59416 z"
           style="opacity:1;fill:#ff0000;stroke-width:0.10629704"
           inkscape:connector-curvature="0" />
        <path
           inkscape:connector-curvature="0"
           style="opacity:1;fill:#ff0000;stroke-width:0.10629704"
           d="m 113.98369,114.4091 -0.59192,-0.01 0.10594,0.10594 z m -0.54428,0.10818 -0.11883,-0.11883 -0.39293,-0.006 0.1889,0.1889 z m -0.38116,0.0757 -0.20179,-0.20179 -0.39293,-0.006 0.27242,0.27242 z m -0.38116,0.0757 -0.28474,-0.28475 -0.39294,-0.006 0.35538,0.35537 z m -0.38116,0.0757 -0.3677,-0.3677 -0.39293,-0.006 0.43833,0.43834 z m -0.3806,0.0762 -0.45122,-0.45122 -0.39293,-0.006 0.52129,0.52129 z m -0.38116,0.0757 -0.53418,-0.53419 -0.33744,-0.005 0.59416,0.59416 z"
           id="path883-1" />
        <path
           id="path889-5"
           d="m 106.93649,114.30484 0.59192,0.01 -0.10594,-0.10594 z m 0.54427,-0.10818 0.11883,0.11883 0.39293,0.006 -0.18889,-0.1889 z m 0.38116,-0.0757 0.20179,0.20179 0.39293,0.006 -0.27242,-0.27242 z m 0.38116,-0.0757 0.28475,0.28475 0.39293,0.006 -0.35537,-0.35537 z m 0.38116,-0.0757 0.36771,0.36771 0.39293,0.006 -0.43833,-0.43833 z m 0.3806,-0.0762 0.45123,0.45123 0.39293,0.006 -0.52129,-0.52129 z m 0.38116,-0.0757 0.53419,0.53418 0.33743,0.005 -0.59416,-0.59416 z"
           style="opacity:1;fill:#ff0000;stroke-width:0.10629704"
           inkscape:connector-curvature="0" />
      </g>
    </g>
  </g>
</svg>
